<svg id="Layer_1" data-name="Layer 1" xmlns="http://www.w3.org/2000/svg" xmlns:xlink="http://www.w3.org/1999/xlink" viewBox="0 0 32.35 32.35"><defs><style>.cls-1{fill:none;}.cls-2{clip-path:url(#clip-path);}.cls-3{fill:#fff;}</style><clipPath id="clip-path" transform="translate(0.15 0.16)"><rect class="cls-1" x="0.14" y="0.19" width="31.65" height="31.65" rx="3.51"/></clipPath></defs><title>facebook_logo</title><g class="cls-2"><path class="cls-3" d="M32.2,32.18H-.15V-.16H32.2Zm-6-12.56h-.4c-1.15,0-2.3,0-3.45,0-.28,0-.35.1-.35.36V31.6c0,.29.09.39.39.39h8.09A1.34,1.34,0,0,0,32,30.58Q32,16,32,1.42A1.33,1.33,0,0,0,30.54,0H1.41A1.34,1.34,0,0,0,0,1.46V30.52A1.36,1.36,0,0,0,1.46,32H17.05V19.61H12.89V14.77h4.18v-.39a21.71,21.71,0,0,1,.37-5.63,4.76,4.76,0,0,1,.91-1.81,8.85,8.85,0,0,1,1.34-1.18,4.93,4.93,0,0,1,2.73-.91c.48,0,1,0,1.45,0,.78,0,1.57,0,2.35,0A7,7,0,0,1,27,5V9.31h-.36c-.84,0-1.68,0-2.52,0a2.22,2.22,0,0,0-1.46.47,2.21,2.21,0,0,0-.59,1.73c-.06,1,0,1.94,0,2.9,0,.28.08.37.37.37h4.46c-.06.61-.11,1.17-.19,1.73s-.2.94-.27,1.42S26.31,19,26.25,19.62Z" transform="translate(0.15 0.16)"/><path d="M26.25,19.62c.06-.6.09-1.14.17-1.68s.2-.94.27-1.42.13-1.12.19-1.73H22.42c-.29,0-.38-.09-.37-.37,0-1,0-1.93,0-2.9a2.21,2.21,0,0,1,.59-1.73,2.22,2.22,0,0,1,1.46-.47c.84,0,1.68,0,2.52,0H27V5a7,7,0,0,0-.78-.11c-.78,0-1.57,0-2.35,0-.48,0-1,0-1.45,0a4.93,4.93,0,0,0-2.73.91,8.85,8.85,0,0,0-1.34,1.18,4.76,4.76,0,0,0-.91,1.81,21.71,21.71,0,0,0-.37,5.63v.39H12.89v4.84h4.16V32H1.46A1.36,1.36,0,0,1,0,30.52V1.46A1.34,1.34,0,0,1,1.41,0H30.54A1.33,1.33,0,0,1,32,1.42Q32,16,32,30.58A1.34,1.34,0,0,1,30.53,32H22.44c-.3,0-.39-.1-.39-.39V20c0-.26.07-.36.35-.36,1.15,0,2.3,0,3.45,0Z" transform="translate(0.15 0.16)"/></g></svg>
