<?xml version="1.0" encoding="utf-8"?>
<!-- Generator: Adobe Illustrator 23.0.0, SVG Export Plug-In . SVG Version: 6.00 Build 0)  -->
<svg version="1.1" id="Layer_1" xmlns="http://www.w3.org/2000/svg" xmlns:xlink="http://www.w3.org/1999/xlink" x="0px" y="0px"
	 viewBox="0 0 40 40" style="enable-background:new 0 0 40 40;" xml:space="preserve">
<style type="text/css">
	.st0{fill:#f4f4f2;}
	.st1{fill:#004225;}
</style>
<path class="st0" d="M2.9,1.1L36,0.4v29.9c0,0-13.5,9.8-15.6,9.4S3.6,31.1,3.6,31.1L2.9,1.1z"/>
<path class="st1" d="M26.7,23.1c0,1.8-0.7,3.5-2.1,4.6c-1.3,1.3-3.1,1.9-5,1.9c-1.4-0.1-2.8-0.4-4.1-1c-0.3-0.2-0.6-0.2-0.9-0.3
	c-0.3,0-0.4,0.3-0.5,0.9c0,0.3-0.2,0.5-0.4,0.5c-0.3,0-0.3-0.1-0.3-0.4c0-0.1,0-0.3,0-0.4c0.2-1.2,0.2-2.4,0.3-3.6
	c0-0.2,0-0.8-0.1-1.8c0-0.2,0-0.3,0-0.5c0-0.3,0.1-0.5,0.4-0.5c0.3,0,0.4,0.3,0.4,0.8c0.5,3.8,2.3,5.7,5.3,5.7c1.3,0,2.3-0.4,3-1.1
	s1.1-1.8,1.1-3.1c0-1.1-0.3-2.2-1-3s-1.8-1.7-3.5-2.5c-2-1-3.4-2-4.2-2.9c-0.8-1-1.2-2.2-1.2-3.4c-0.1-1.6,0.6-3.2,1.7-4.3
	C16.8,7.6,18.4,7,20,7c1,0.1,2,0.3,3,0.7c0.3,0.1,0.6,0.2,1,0.3c0.2,0,0.3,0,0.5-0.1c0.1-0.2,0.2-0.4,0.2-0.7c0-0.2,0.2-0.3,0.3-0.3
	c0.2,0,0.3,0.1,0.3,0.4c0,0.1,0,0.3,0,0.4c-0.1,0.6-0.1,1.2-0.1,1.8c0,0.8,0,1.6,0.2,2.4v0.5c0,0.2-0.1,0.3-0.3,0.3
	s-0.4-0.2-0.5-0.7c-0.2-1.2-0.8-2.3-1.6-3.1c-0.8-0.8-1.8-1.2-2.9-1.2c-0.9,0-1.9,0.3-2.5,1c-0.7,0.8-1,1.7-0.9,2.7
	c0,1.2,0.4,2.4,1.4,3.3c0.5,0.5,1.6,1.1,3.3,2c2,1,3.4,2,4.3,3C26.3,20.6,26.8,21.8,26.7,23.1z"/>
</svg>
