<svg version="1.1" id="Layer_1" xmlns="http://www.w3.org/2000/svg" xmlns:xlink="http://www.w3.org/1999/xlink" x="0px" y="0px" viewBox="0 0 420 420" style="enable-background:new 0 0 420 420;" xml:space="preserve">
<style type="text/css">
	.st0{fill:#004225;}
	.st1{fill:#F7F5F5;}
	.st2{fill:none;
        stroke:#004225;
        stroke-width:9;
        stroke-miterlimit:10;
        transform-origin: center;
        transform: rotate(270deg);
        stroke-dasharray: 1300;
        transition: stroke-dashoffset 1.5s;
        -webkit-animation-play-state: running;
    }
    svg:hover .st2 {
        stroke-dashoffset: 1300 !important;
        -webkit-animation-play-state: paused;
    }

    @keyframes {
  from {
    stroke-dashoffset: 0;
  }
  to {
    stroke-dashoffset: 1300;
  }
}
</style>
<g>
	<g>
		<path class="st0" d="M185.1,93.8l-4.9,11l-47.7,19.5c0,0-17.7,197.3-15.3,199.8H138l18.3-107.5l6.1,24.4l-20.8,83.1l59.9,24.4
			l8.6-45.2l9.8,45.2l58.7-24.4L259,239.8l4.9-23.2l18.3,107.5H303c0,0-12.2-200.4-14.7-199.2l-48.9-20.8l-4.9-9.8l-24.4,133.2
			L185.1,93.8z"/>
		<polygon class="st0" points="218.7,104.1 201.6,104.1 207.7,116.4 196.7,128.6 210.1,203.1 223.6,127.4 213.8,116.4 		"/>
		<path class="st1" d="M244.3,170.1l18.3-2.4v-8.6c0,0-4.9-4.9-6.1-4.9S244.3,170.1,244.3,170.1z"/>
	</g>
</g>
<g id="Layer_3">
	<g>
		<g>
			<path class="st0" d="M110.8,88.8c2.7,3,3.9,7,3.4,11c-0.4,4.2-2.5,8-5.7,10.7c-2.5,2-5.5,3.5-8.6,4.3c-0.7,0.2-1.4,0.5-2,0.9
				c-0.4,0.4-0.3,1.1,0.5,2.2c0.4,0.6,0.4,1,0,1.4s-0.7,0.3-1.1-0.2c-0.2-0.2-0.4-0.4-0.5-0.7c-1.5-2.3-3.2-4.4-5-6.5
				c-0.3-0.4-1.2-1.3-2.8-3c-0.3-0.3-0.6-0.5-0.8-0.8c-0.5-0.6-0.5-1,0-1.4s1-0.1,1.9,0.7c6.6,5.7,12.5,6.3,17.7,1.8
				c2-1.5,3.3-3.8,3.5-6.3c0.1-2.3-0.8-4.6-2.8-6.9c-1.6-1.9-3.8-3.2-6.3-3.7c-2.4-0.4-5.7-0.1-9.8,1c-5,1.3-8.8,1.8-11.5,1.4
				c-2.8-0.5-5.4-2-7.2-4.2c-2.5-2.7-3.8-6.3-3.6-10c0.2-3.6,1.9-7,4.7-9.3c1.9-1.4,4-2.5,6.2-3.2c0.7-0.2,1.4-0.6,2.1-1
				c0.4-0.3,0.6-0.6,0.6-0.9c-0.1-0.5-0.3-1-0.6-1.4c-0.3-0.3-0.2-0.8,0.1-1.1l0,0c0.4-0.3,0.7-0.2,1.1,0.2c0.2,0.2,0.4,0.4,0.5,0.7
				c0.8,1.1,1.7,2.2,2.6,3.3c1.2,1.4,2.5,2.7,3.9,3.9l0.8,0.8c0.4,0.4,0.4,0.7,0,1s-1,0.2-1.9-0.5c-2.1-1.7-4.7-2.8-7.4-2.9
				c-2.5-0.2-5,0.6-6.9,2.2c-1.7,1.3-2.7,3.3-2.8,5.5c0,2.3,0.9,4.5,2.5,6.1c1.8,2.2,4.4,3.5,7.2,3.6c2.9-0.2,5.8-0.7,8.6-1.6
				c4.9-1.3,8.8-1.7,11.8-1.2C106.2,85.1,108.9,86.6,110.8,88.8z"/>
		</g>
		<g>
			<path class="st0" d="M133.4,63.7c0.3,0.6,0.3,1-0.3,1.3s-1,0.1-1.5-0.6c-0.9-1.4-2-2.5-3.4-3.4c-1.6-1-3.9-0.7-6.7,1
				c-0.4,0.3-1.1,0.6-1.9,1.2l14.6,25c0.5,0.8,1.3,0.8,2.5,0.2s1.9-0.8,2.1-0.6s-0.1,0.6-0.8,1.1l-0.4,0.3l-1.7,1l-1.7,1l-1.4,0.8
				l-3.4,2l-1.5,0.9c-0.8,0.5-1.3,0.6-1.5,0.3s0.4-0.8,1.8-1.7c0.3-0.2,0.7-0.4,0.9-0.7c0.3-0.3,0.4-0.7,0.2-1
				c-0.2-0.4-0.8-1.4-1.8-3.2l-13.1-22.3c-3.3,1.8-5.2,3.4-5.7,4.7c-0.6,1.3-0.3,3.3,0.9,6.1c0.4,1,0.4,1.7,0,1.9
				c-0.4,0.2-0.8-0.1-1.4-1.1c-0.7-1.2-1.9-3.6-3.5-7.3l14.5-8.5c1.3-0.7,3.9-2.3,7.8-4.7c0.4-0.3,0.8-0.6,1.2-1l0.8,1.2l1.5,2.1
				l1.7,2.4l0.8,1C133.1,63.2,133.2,63.5,133.4,63.7z"/>
		</g>
		<g>
			<path class="st0" d="M163.4,43.3c0.1,0.3-0.1,0.5-0.7,0.8c-1,0.4-2,1-2.7,1.9c-0.3,0.5-0.6,2.7-1,6.4c-0.3,3.3-0.8,6.5-1.3,9.4
				c-0.2,0.8-0.3,1.6-0.2,2.5c0.2,0.9,0.5,1.7,0.8,2.6l3.1,8.4c0.3,0.9,0.7,1.4,1,1.4c1-0.1,2-0.3,2.9-0.7c0.8-0.3,1.3-0.2,1.4,0.1
				s-0.1,0.6-0.8,0.8l-0.4,0.2l-1.4,0.5l-1.8,0.7l-2,0.7l-2,0.7l-1,0.4l-3.4,1.2l-0.7,0.3c-0.6,0.2-0.9,0.2-1.1-0.2
				c-0.1-0.3,0.5-0.8,1.7-1.3c1.3-0.5,2-1,2.1-1.3c0-0.9-0.2-1.7-0.6-2.5l-3.4-9c-0.5-0.4-1.2-1.1-2.1-1.9l-7.8-6.5l-2.8-2.4
				c-0.7-0.6-1.5-1.3-2.4-2c-0.6-0.3-1.8-0.1-3.7,0.5c-0.6,0.2-0.9,0.2-1.1-0.2s0.1-0.7,0.7-0.9l1.3-0.5l2.9-1.1l2.1-0.8l6-2.2
				l0.7-0.3c0.7-0.3,1.1-0.2,1.2,0.2s-0.4,0.7-1.6,1.1c-1.8,0.7-2.6,1.3-2.4,1.9s4.3,4.3,12.1,10.6c1.4-10.3,2-15.7,1.9-16.1
				s-0.6-0.5-1.4-0.2l-1.2,0.5l-0.6,0.2c-0.8,0.3-1.2,0.3-1.4-0.1s0.2-0.6,1-0.9l2.6-1l1.6-0.6C161.5,43.2,163.2,42.8,163.4,43.3z"
				/>
		</g>
		<g>
			<path class="st0" d="M199.7,62.8c0.5,2.7,0.8,4.9,1.1,6.7c-0.3,0.1-0.7,0.2-1,0.3c0,0-0.4,0.1-1.1,0.1S197,70,196,70.2l-3.3,0.6
				l-12.1,2.1l-5.9,1.1c-0.6,0.1-1,0-1-0.3s0.8-0.6,2.6-1.1c0.5-0.2,0.8-0.3,0.9-0.5c0.1-0.5,0-1.1-0.1-1.6l-4.4-23.8
				c-0.5-2.6-1-4-1.4-4.1s-0.9,0-1.3,0.1c-0.4,0.1-0.8,0.1-1.3,0.2c-0.5,0.1-0.8,0-0.9-0.4s0.2-0.6,0.8-0.7l9.8-1.8l1.6-0.3
				c0.9-0.2,1.4,0,1.5,0.3s-0.7,0.6-2.3,0.9c-0.7,0.2-1.2,0.4-1.3,0.8c0,1,0.1,2.1,0.4,3.1l4.9,26.3c1.9-0.3,3.3-0.5,4.1-0.7
				c5.1-0.9,8.2-2,9.2-3.2c0.9-1,1.2-2.8,1-5.5c-0.1-1.2,0-1.8,0.5-1.8C198.8,59.7,199.3,60.7,199.7,62.8z"/>
		</g>
		<g>
			<path class="st0" d="M228.3,61.1c0,0,0,0.4-0.1,0.9s-0.1,1-0.1,1.5l0.1,4.2c0,0.5,0.1,1,0.2,1.4h-12l-13.8,0.4
				c-1,0-1.5-0.2-1.5-0.6s0.3-0.7,0.9-0.7c0.9,0.1,1.8,0,2.7-0.4c0.3-0.2,0.4-1,0.4-2.3l-0.4-24.8c0-2-0.2-3-0.6-3.1
				c-0.8-0.1-1.7-0.2-2.5-0.1c-0.6,0-0.9-0.2-0.9-0.5s0.3-0.6,0.9-0.6h1.7h1.4h0.8h1.8l3.6-0.1l7.9-0.1l4.2-0.1h3.1v0.5l0.1,1.1
				c0.1,0.7,0.3,2.8,0.7,6.4c0.1,0.3,0.1,0.6,0.1,0.8c0,0.6-0.2,0.9-0.5,0.9c-0.4,0-0.8-0.5-1-1.4c-0.7-3.6-2-5.8-3.9-6.3
				c-1.1-0.3-3.6-0.4-7.5-0.4l-3.6,0.1l0.2,13.5h1.7c3.1,0,4.9-0.3,5.6-0.8s1.2-1.9,1.4-4.2c0.1-1.3,0.4-2,0.8-2s0.7,0.5,0.8,1.4
				c0,0.6,0,1.5-0.1,2.7s-0.1,2.1-0.1,2.7c0.1,3.1,0.1,5.3,0.3,6.4c0,0.3,0.1,0.6,0.1,0.9c0,0.8-0.2,1.2-0.7,1.2s-0.7-0.6-0.9-1.8
				c-0.3-2.6-0.8-4.1-1.5-4.6s-2.5-0.7-5.6-0.7h-1.8l0.3,15.6c7-0.2,11.1-0.4,12.4-0.8c1.9-0.6,3-2.9,3.3-7c0-0.7,0.3-1.1,0.8-1.1
				S228.3,59.8,228.3,61.1z"/>
		</g>
		<g>
			<path class="st0" d="M265.6,74.6c-0.1,0.4-0.5,0.5-1.4,0.3l-0.7-0.1l-3.2-0.6l-2.5-0.4l-2.8-0.5l-3.1-0.6l-0.4-0.1
				c-0.9-0.2-1.2-0.4-1.2-0.7c0-0.2,0.2-0.3,0.4-0.3l0,0c0.8,0.1,1.6,0.2,2.4,0.3c1,0.1,1.6,0.1,1.8-0.1c0.4-0.8,0.6-1.7,0.7-2.6
				l4.1-22.9c-1.3,2.2-3.4,5.9-6.2,11c-1.7,3.1-3.8,7-6.4,11.9c-0.7,1.4-1.3,2-1.5,2s-0.7-0.8-0.9-2.1c-0.5-3.5-2.2-12.1-5.2-26
				l-4.4,24.3c-0.2,0.5,0.1,1,0.5,1.3c0.6,0.2,1.5,0.3,2.5,0.5c0.6,0.1,0.9,0.3,0.8,0.7s-0.6,0.5-1.5,0.3l-1-0.2l-1.5-0.3l-4-0.7
				l-1.6-0.3c-0.7-0.1-1-0.4-1-0.8s0.9-0.4,2.4-0.2c1,0.1,1.7,0.1,1.9-0.1c0.4-0.7,0.6-1.5,0.7-2.3l4.4-24c0.3-1.6,0.3-2.6,0.1-2.9
				s-1.3-0.7-3-1.1c-0.6-0.1-0.9-0.3-0.8-0.7s0.5-0.4,1.3-0.3s3.6,0.6,8.5,1.5l0.1,0.8c0.1,0.6,0.3,1.3,0.5,2.4l0.9,4.6
				c0.3,1.3,0.7,3.4,1.3,6.4l2.1,10c1.1-2.1,2-3.7,2.6-4.7l9.2-16.4l5.4,1l3.1,0.6c1.2,0.2,1.8,0.5,1.7,0.9s-0.5,0.5-1.5,0.4
				c-0.7-0.1-1.5-0.2-2.2-0.3c-0.7,0.1-1.2,0.6-1.3,1.3l-4.5,25c-0.4,1.9-0.4,2.9-0.1,3.1c1,0.4,2.1,0.7,3.2,0.8
				C265.4,74,265.7,74.2,265.6,74.6z"/>
		</g>
		<g>
			<path class="st0" d="M295.4,87.1c-0.1,0.3-0.6,0.2-1.5-0.1l-0.5-0.2l-4.1-1.7l-1.9-0.8l-3.1-1.3l-2-0.8l-1.2-0.5l-0.3-0.1
				c-0.8-0.3-1.1-0.7-1-1s1-0.2,2.6,0.4c1.9,0.7,3,0.9,3.1,0.5c0.1-0.5,0.1-0.9,0.1-1.4c0.1-0.4,0.1-2.1,0.2-5.1l0.1-2.6l-9.6-3.8
				c-3.7,3.9-5.6,6.1-5.9,6.9c-0.2,0.4,0,0.7,0.5,1l0.8,0.4l1,0.4l0.5,0.4c0.5,0.2,0.8,0.5,0.6,0.7s-0.6,0.3-1.6-0.1
				c-0.1,0-0.9-0.4-2.3-1s-2.7-1.2-3.8-1.6l-0.6-0.2l-0.6-0.1l-0.8-0.2l-0.1-0.1c-0.7-0.3-1-0.6-0.9-0.8s0.5-0.4,1.1-0.2
				c0.8,0.3,1.4,0.4,1.6,0.5c0.6,0.2,1.2,0.2,1.7,0c0.3,0,2.4-2.1,6.3-6.3c1.6-1.7,3-3.3,4.5-4.8c0.4-0.4,0.8-0.8,1.1-1.2
				c0.3-0.4,0.7-0.8,1.1-1.2c1.5-1.5,3.7-3.9,6.5-7l2.1-2.4l0.9-1c0.5-0.6,0.9-0.8,1.2-0.7s0.2,0.8,0.1,2.2c0,3.8,0,13.8,0,30
				c0,1.6,0.2,2.5,0.6,2.8c0.1,0.1,0.8,0.4,2.1,1.1C295.2,86.4,295.6,86.8,295.4,87.1z M286,71.2l0.3-13.2c-2.1,2.2-5.1,5.5-9,9.6
				L286,71.2z"/>
		</g>
		<g>
			<path class="st0" d="M336.6,76c-0.2,0.3-0.7,0.1-1.6-0.4c-0.1-0.1-0.4-0.3-0.9-0.5l-0.7-0.4c-0.4-0.2-0.6-0.3-0.8-0.2
				c-0.4,0.5-0.8,1-1.1,1.6l-14.2,22.5c-0.9,1.5-1.5,2.3-1.7,2.5s-0.5,0.2-0.8,0s-0.8-2.9-1.1-7.8c0-0.6-0.1-1.5-0.2-2.7
				c0-0.2,0-0.6-0.1-1.3c-0.3-4-0.8-11.4-1.4-22.2l-12.2,19.3c-1,1.5-1.3,2.4-0.9,2.8c0.7,0.6,1.5,1.1,2.3,1.6l0.2,0.2
				c0.5,0.3,0.6,0.6,0.5,0.9s-0.7,0.2-1.6-0.4c-0.2-0.1-0.8-0.6-1.9-1.4c-0.6-0.4-1.1-0.8-1.6-1.1s-0.8-0.5-1.3-0.7
				c-0.9-0.4-1.7-0.9-2.6-1.5c-0.6-0.4-0.9-0.8-0.7-1.1s0.6-0.2,1.4,0.3l0.5,0.3l0.8,0.4c1,0.5,1.6,0.7,1.9,0.4
				c0.4-0.5,0.8-1.1,1.2-1.7l10.7-16.8c1.9-3.1,2.9-5,2.9-5.9c0-1.1-0.7-2.1-2.1-3c-1-0.6-1.4-1.1-1.2-1.5s0.5-0.2,1,0.1l0.3,0.2
				l3.3,2.1l0.8,0.5l1.1,0.7l2.3,1.4l1.8,28.8l10.7-16.9c0.4-0.6,0.8-1.2,1-1.8c0-0.2-0.3-0.5-0.8-0.9l-1.3-0.8l-0.4-0.2
				c-0.8-0.5-1.1-0.9-0.9-1.2s0.4-0.2,0.8,0s1.8,1,4.1,2.6s3.5,2.3,3.9,2.5S336.8,75.8,336.6,76z"/>
		</g>
		<g>
			<path class="st0" d="M364.7,101.8c-0.2,0.2-0.7,0-1.5-0.7l-0.7-0.7l-0.6-0.6c-0.3-0.3-0.6-0.4-0.8-0.3c-0.5,0.4-1,0.8-1.4,1.3
				l-18.2,19.3c-1.2,1.3-1.9,2-2.1,2.2s-0.5,0.1-0.8-0.1s-0.2-3,0.4-7.9c0.1-0.6,0.2-1.5,0.4-2.7c0-0.2,0.1-0.6,0.2-1.3
				c0.4-4,1.4-11.3,2.8-22l-15.7,16.6c-1.2,1.3-1.7,2.2-1.4,2.6c0.6,0.7,1.2,1.4,1.9,2l0.2,0.2c0.4,0.4,0.5,0.7,0.3,0.9
				c-0.2,0.3-0.8,0-1.5-0.7c-0.1-0.1-0.7-0.7-1.6-1.7c-0.5-0.5-0.9-1-1.4-1.4s-0.7-0.6-1.1-0.9c-0.8-0.6-1.5-1.2-2.2-1.9
				c-0.6-0.5-0.7-0.9-0.5-1.2s0.6,0,1.3,0.6l0.5,0.4l0.7,0.6c0.9,0.7,1.5,1,1.8,0.8c0.5-0.5,1-1,1.5-1.5l13.7-14.5
				c2.5-2.7,3.8-4.4,4-5.2c0.2-1.1-0.3-2.2-1.5-3.4c-0.9-0.8-1.2-1.4-0.9-1.7s0.5-0.1,1,0.3l0.2,0.2l2.9,2.7l0.7,0.7l0.9,0.9
				l1.9,1.8l-3.7,28.7l13.7-14.6c0.5-0.5,1-1.1,1.3-1.7c0.1-0.2-0.1-0.5-0.6-1l-1.1-1l-0.3-0.3c-0.7-0.6-0.9-1.1-0.6-1.3
				s0.4-0.1,0.8,0.2s1.5,1.4,3.6,3.3s3,2.9,3.3,3.2S364.9,101.6,364.7,101.8z"/>
		</g>
		<g>
			<path class="st0" d="M62.5,319.5c-0.1,0-0.2-0.1-0.4-0.3L62,319l-0.8-1.3l-0.3-0.6l-0.6-1l-0.4-0.6l-0.2-0.4l-0.1-0.1
				c-0.2-0.3-0.2-0.4-0.1-0.5s0.3,0.1,0.6,0.6s0.6,0.8,0.7,0.8c0.1-0.1,0.2-0.2,0.3-0.4c0.1-0.1,0.5-0.5,1.1-1.3l0.5-0.7l-1.7-3
				c-1,0.1-2,0.3-3,0.6c-0.1,0.1-0.2,0.2-0.1,0.4l0.1,0.3l0.2,0.3v0.2c0.1,0.2,0.1,0.3,0,0.3s-0.2-0.1-0.4-0.4l-0.4-0.8
				c-0.2-0.5-0.5-0.9-0.7-1.2l-0.1-0.2l-0.1-0.2l-0.2-0.2l0,0c-0.1-0.2-0.2-0.4-0.1-0.4s0.2,0,0.3,0.2s0.2,0.3,0.3,0.5
				s0.3,0.3,0.5,0.3c1,0,2-0.2,3-0.4c0.8-0.1,1.5-0.2,2.2-0.3c0.2,0,0.4-0.1,0.5-0.1c0.2,0,0.4-0.1,0.5-0.1c0.7-0.1,1.8-0.3,3.2-0.5
				l1-0.2l0.5-0.1c0.3,0,0.4,0,0.4,0.1s-0.1,0.2-0.4,0.6c-0.8,1-2.8,3.6-6.1,7.9c-0.3,0.4-0.5,0.7-0.4,0.9c0.1,0.2,0.2,0.5,0.3,0.7
				C62.6,319.2,62.6,319.4,62.5,319.5z M63.3,313.4L66,310c-1,0.2-2.5,0.4-4.3,0.7L63.3,313.4z"/>
		</g>
		<g>
			<path class="st0" d="M69.9,330.1c-0.1,0.1-0.2,0-0.4-0.2c0,0,0,0-0.1-0.2l-0.6-0.9l-0.5-0.7c-0.1-0.2-0.3-0.5-0.5-0.8l-0.6-0.9
				l-0.1-0.1c-0.2-0.2-0.2-0.4-0.1-0.5c0,0,0.1,0,0.2,0l0,0c0.2,0.2,0.3,0.4,0.5,0.6c0.2,0.3,0.3,0.4,0.4,0.4
				c0.3-0.1,0.5-0.2,0.8-0.4l6.3-4.4l-4,1.1c-1.1,0.3-2.5,0.8-4.3,1.3c-0.5,0.1-0.8,0.2-0.8,0.1s0-0.3,0.3-0.7
				c0.7-0.9,2.3-3.4,4.9-7.3l-6.8,4.7c-0.2,0.1-0.2,0.3-0.2,0.4c0.1,0.2,0.3,0.4,0.5,0.7s0.1,0.3,0,0.4s-0.2,0-0.4-0.3l-0.2-0.3
				l-0.3-0.4l-0.8-1.1l-0.3-0.4c-0.1-0.2-0.2-0.3,0-0.4s0.3,0.1,0.6,0.5s0.4,0.4,0.5,0.4c0.3-0.1,0.5-0.2,0.7-0.4l6.7-4.6
				c0.4-0.3,0.7-0.5,0.7-0.7c-0.1-0.3-0.2-0.7-0.5-1c-0.1-0.2-0.1-0.3,0-0.4s0.2,0,0.4,0.2s0.7,1,1.7,2.4l-0.2,0.2l-0.4,0.7
				l-0.9,1.3l-1.2,1.8l-1.8,2.8l1.7-0.5l6-1.7l1,1.5l0.6,0.9c0.3,0.3,0.3,0.5,0.2,0.6s-0.2,0-0.4-0.3s-0.4-0.5-0.5-0.6
				c-0.2-0.1-0.4-0.1-0.6,0l-7,4.8c-0.5,0.4-0.8,0.6-0.8,0.7c0.1,0.3,0.3,0.7,0.6,1C70,329.9,70,330.1,69.9,330.1z"/>
		</g>
		<g>
			<path class="st0" d="M77.4,339.8c-0.1,0.1-0.2,0-0.4-0.3l-0.1-0.1l-0.9-1.2l-0.4-0.5l-0.7-0.9l-0.4-0.6l-0.3-0.3l-0.1-0.1
				c-0.2-0.2-0.2-0.4-0.1-0.5s0.3,0.1,0.7,0.5s0.7,0.8,0.8,0.7c0.1-0.1,0.2-0.3,0.3-0.4c0.1-0.1,0.4-0.6,0.9-1.4l0.5-0.7l-2.1-2.7
				c-1,0.2-1.9,0.6-2.8,1c-0.1,0.1-0.1,0.2,0,0.4l0.2,0.3l0.2,0.3l0.1,0.2c0.1,0.1,0.1,0.3,0.1,0.3s-0.2,0-0.4-0.3l-0.5-0.7
				c-0.3-0.4-0.6-0.8-0.8-1.1l-0.1-0.2l-0.2-0.1l-0.2-0.2l0,0c-0.2-0.2-0.2-0.3-0.1-0.4s0.2,0,0.3,0.1l0.4,0.4
				c0.1,0.1,0.3,0.2,0.5,0.3c1-0.2,1.9-0.4,2.9-0.8c0.7-0.2,1.4-0.5,2.1-0.6c0.2,0,0.3-0.1,0.5-0.2s0.3-0.1,0.5-0.2
				c0.7-0.2,1.7-0.5,3-1l1-0.3l0.4-0.1c0.3-0.1,0.4-0.1,0.5,0s-0.1,0.3-0.3,0.7c-0.6,1.1-2.3,4-4.9,8.7c-0.3,0.5-0.4,0.8-0.3,0.9
				s0.2,0.3,0.4,0.6S77.5,339.7,77.4,339.8z M77.3,333.6l2.2-3.8c-1,0.3-2.4,0.7-4.2,1.3L77.3,333.6z"/>
		</g>
		<g>
			<path class="st0" d="M87.5,346.1c-0.1,0-0.2,0-0.4-0.2l-0.5-0.6c-0.1,0-0.2,0-0.3,0c-0.2,0.1-0.5,0.3-0.7,0.5l-0.7,0.6
				c-1.3-0.2-2.5-0.8-3.4-1.8c-1.1-1.1-1.7-2.6-1.7-4.1c0.1-1.5,0.8-2.9,1.9-3.8c1.1-1.1,2.6-1.7,4.1-1.7c1.5,0.1,2.9,0.7,3.9,1.9
				c0.6,0.7,1.1,1.6,1.3,2.6c0,0.1,0,0.1,0.1,0.2s0.2,0.1,0.4,0s0.5-0.1,0.6,0s0.1,0.2,0,0.3l0,0l-0.3,0.2c-0.4,0.3-1.1,0.9-2.1,1.8
				c-0.3,0.3-0.5,0.3-0.6,0.2s-0.1-0.2,0.1-0.4c0.7-0.6,1.1-1.4,1.2-2.3c0.1-0.8-0.2-1.6-0.8-2.2c-0.7-0.8-1.7-1.1-2.8-0.9
				c-1.3,0.3-2.6,1-3.5,2c-1,0.8-1.8,2-2.2,3.2c-0.3,1,0,2,0.7,2.8c0.7,0.7,1.3,1,1.9,0.7c0.3-0.2,0.6-0.4,0.8-0.6
				c0.4-0.4,0.6-0.6,0.6-0.7s-0.2-0.4-0.5-0.7l-0.1-0.1l-0.2-0.2c-0.1-0.1-0.1-0.2,0-0.3s0.3,0,0.5,0.3l0.4,0.5l0.3,0.4l0.2,0.3
				l1.3,1.4l0.3,0.3C87.6,345.8,87.6,346,87.5,346.1z"/>
		</g>
		<g>
			<path class="st0" d="M94.1,353.3c-0.1,0.1-0.2,0.1-0.2,0.2c-0.1,0.1-0.3,0.2-0.4,0.3l-1,1c-0.1,0.1-0.2,0.2-0.3,0.4l-2.8-2.8
				l-3.3-3.1c-0.2-0.2-0.3-0.4-0.2-0.5s0.2-0.1,0.4,0c0.4,0.4,0.6,0.5,0.7,0.5s0.3-0.1,0.6-0.5l5.7-5.9c0.4-0.5,0.7-0.8,0.6-0.9
				c-0.2-0.2-0.3-0.4-0.6-0.6c-0.1-0.1-0.2-0.2-0.1-0.3s0.2-0.1,0.4,0.1l0.4,0.4l0.3,0.3l0.2,0.2l0.4,0.4l0.9,0.8l1.9,1.8l1,1
				l0.7,0.7l-0.1,0.1l-0.2,0.3c-0.1,0.2-0.6,0.8-1.3,1.7c-0.1,0.1-0.1,0.2-0.2,0.2c-0.1,0.1-0.3,0.2-0.3,0.1s-0.1-0.3,0.1-0.6
				c0.7-1,0.9-1.8,0.6-2.4c-0.5-0.7-1-1.3-1.7-1.9l-0.9-0.9l-3.1,3.2l0.4,0.4c0.4,0.5,0.9,0.9,1.5,1.1c0.3,0,0.7-0.2,1.3-0.7
				c0.3-0.3,0.6-0.4,0.7-0.3s0.1,0.3-0.2,0.5s-0.3,0.3-0.7,0.6l-0.7,0.6c-0.7,0.8-1.2,1.3-1.4,1.6l-0.2,0.2
				c-0.2,0.2-0.3,0.2-0.4,0.1s0-0.3,0.2-0.6c0.5-0.7,0.8-1.2,0.7-1.5c-0.3-0.6-0.7-1.1-1.2-1.5l-0.4-0.4l-3.6,3.7c1,1,2,1.9,3.1,2.7
				c0.6,0.3,1.4,0,2.4-0.9c0.2-0.2,0.3-0.2,0.4-0.1S94.3,353,94.1,353.3z"/>
		</g>
		<g>
			<path class="st0" d="M101.4,362.4c-0.3,0.4-0.8,0.3-1.5-0.3c-0.7-0.5-1-1.3-1-2.1c0-0.3,0.1-0.7,0.2-1c0.3-0.6,0.7-1.2,1.1-1.7
				c0.3-0.4,0.5-1,0.4-1.5c-0.2-0.6-0.6-1.2-1.1-1.5l-3.2,3.8c-0.2,0.1,0,0.5,0.7,1c0.1,0.1,0.2,0.2,0.1,0.3c-0.1,0.1-0.2,0-0.4-0.1
				l-0.4-0.3l-0.6-0.5l-1-0.8l-0.6-0.5l-0.3-0.3c-0.3-0.3-0.5-0.5-0.4-0.5s0.2-0.1,0.3,0l0.2,0.1l0.1,0.1c0.4,0.3,0.7,0.4,0.8,0.3
				l6.2-7.2c0.1-0.1,0.2-0.3,0.1-0.4c-0.1-0.2-0.3-0.4-0.5-0.5c-0.3-0.2-0.4-0.4-0.3-0.5s0.2-0.1,0.4,0.1l0.1,0.1l1.7,1.5l1,0.8
				l0.6,0.5c0.7,0.6,1.3,1.3,1.5,2.2c0.2,0.7,0.1,1.4-0.4,2s-1.2,0.9-2,0.8c-1-0.1-2-0.6-2.8-1.2c0.8,0.7,1.3,1.6,1.4,2.6
				c-0.1,1.1-0.5,2.1-1.2,2.9c-0.6,0.8-0.7,1.4-0.3,1.7c0.1,0.1,0.1,0.1,0.1,0s0-0.1,0.1-0.2c0-0.1,0-0.1,0.1-0.2
				c0.1-0.2,0.4-0.2,0.6-0.1c0,0,0.1,0,0.1,0.1c0.2,0.1,0.4,0.3,0.3,0.6C101.5,362.2,101.5,362.3,101.4,362.4z M103.5,354
				c0.8-0.7,0.9-1.9,0.2-2.7c-0.1-0.1-0.2-0.2-0.4-0.3c-0.2-0.2-0.4-0.3-0.6-0.4c-0.1,0-0.3,0.1-0.4,0.3l-2.6,3
				C101.3,355.2,102.5,355.2,103.5,354L103.5,354z"/>
		</g>
		<g>
			<path class="st0" d="M110.6,366.4c-0.4,0.6-1,0.9-1.7,1c-0.8,0-1.6-0.2-2.3-0.6c-1-0.7-2-1.4-3-2.1l-1.2-0.9l0,0l-0.3-0.2
				c-0.1,0-0.1-0.1,0-0.2s0.1-0.1,0.2-0.1c0.2,0.1,0.3,0.2,0.5,0.3c0.3,0.2,0.4,0.3,0.5,0.3s0.2-0.2,0.4-0.4l5.2-6.9
				c0.2-0.2,0.3-0.4,0.4-0.6c0-0.1-0.2-0.3-0.5-0.6s-0.4-0.4-0.3-0.4s0.3,0,0.5,0.2l0.3,0.3c0.1,0.1,0.5,0.4,1.1,0.9l0.9,0.7
				c0.9,0.7,1.4,1.1,1.6,1.3c0.3,0.2,0.5,0.5,0.7,0.8c0.7,0.8,0.7,2,0.1,2.8c-0.9,1.2-2.3,1.2-4.2,0.1v0.1c0.8,0.6,1.4,1.4,1.7,2.3
				C111.4,365,111.2,365.8,110.6,366.4z M109.1,365c1-1.4,0.8-2.6-0.8-3.8l-0.4-0.3l-2.9,3.9c-0.1,0.2-0.2,0.3-0.1,0.4
				c0.1,0.2,0.3,0.3,0.5,0.5C106.8,366.6,108,366.4,109.1,365z M111.8,360.5c0.6-0.8,0.8-1.5,0.6-2c-0.2-0.4-0.6-0.7-0.9-1
				c-0.2-0.1-0.3-0.2-0.5-0.3l-0.2-0.1l-2.7,3.6c0.5,0.4,1,0.7,1.6,0.9C110.5,361.7,111.4,361.3,111.8,360.5L111.8,360.5z"/>
		</g>
		<g>
			<path class="st0" d="M119.3,374.8c-0.3,0.4-0.8,0.4-1.5-0.1c-0.7-0.4-1.2-1.2-1.2-2c-0.1-0.3,0-0.7,0.1-1
				c0.2-0.6,0.5-1.3,0.9-1.9c0.3-0.5,0.4-1,0.2-1.6c-0.3-0.6-0.7-1.1-1.3-1.4l-2.7,4.1c-0.2,0.2,0.1,0.5,0.8,1
				c0.1,0.1,0.2,0.2,0.1,0.3s-0.2,0.1-0.4,0l-0.4-0.3l-0.7-0.5l-1.1-0.7l-0.7-0.4L111,370c-0.4-0.2-0.5-0.4-0.5-0.5s0.2-0.1,0.3,0
				l0.2,0.1h0.1c0.4,0.3,0.7,0.4,0.9,0.2l5.2-7.9c0.1-0.1,0.1-0.2,0.1-0.4c-0.1-0.2-0.3-0.3-0.5-0.5c-0.3-0.2-0.4-0.4-0.4-0.5
				s0.2-0.1,0.4,0l0.1,0.1l1.9,1.3l1.1,0.7l0.7,0.4c0.8,0.5,1.4,1.2,1.8,2c0.3,0.6,0.3,1.4-0.1,2s-1.1,1-1.9,1c-1,0-2-0.3-2.9-0.9
				c0.8,0.6,1.5,1.4,1.7,2.4c0,1.1-0.3,2.1-0.8,3s-0.5,1.5-0.1,1.7c0.1,0,0.1,0,0.1,0c0-0.1,0-0.1,0-0.2s0-0.1,0.1-0.2
				c0.2-0.3,0.4-0.3,0.6-0.1C119.3,374.3,119.4,374.5,119.3,374.8L119.3,374.8z M120.4,366.3c0.7-0.8,0.7-1.9-0.1-2.7
				c-0.2-0.1-0.3-0.3-0.5-0.3c-0.2-0.1-0.4-0.2-0.6-0.3c-0.1,0-0.3,0.1-0.4,0.4l-2.2,3.3C118.2,367.7,119.5,367.6,120.4,366.3
				L120.4,366.3z"/>
		</g>
		<g>
			<path class="st0" d="M131.9,376.6c-0.7,1.3-1.8,2.3-3.2,2.7c-1.3,0.4-2.8,0.3-4-0.4c-1.3-0.7-2.2-1.9-2.6-3.4c-0.7-3,1-6,3.9-7
				c1.4-0.4,2.9-0.2,4.2,0.5s2.2,1.9,2.5,3.3C132.9,373.8,132.7,375.3,131.9,376.6z M129.9,375.6c0.8-1.3,1.2-2.8,1.2-4.4
				c-0.1-0.8-0.5-1.5-1.2-1.9c-1-0.6-2.3-0.4-3.2,0.4c-0.9,0.8-1.6,1.7-2.2,2.7c-0.7,1.1-1.1,2.4-1.1,3.8c0,1,0.5,1.9,1.4,2.4
				C126.5,379.5,128.2,378.5,129.9,375.6L129.9,375.6z"/>
		</g>
		<g>
			<path class="st0" d="M142.4,383.8c0,0.1-0.2,0-0.4-0.1l-0.7-0.3c-0.1,0-0.2,0-0.3,0.1c-0.2,0.2-0.3,0.5-0.4,0.8l-0.4,0.9
				c-1.3,0.3-2.7,0.2-3.9-0.4c-1.4-0.6-2.6-1.7-3.2-3.1c-0.5-1.4-0.4-3,0.3-4.3c0.6-1.4,1.7-2.6,3.2-3.1c1.4-0.5,3-0.4,4.3,0.3
				c0.9,0.4,1.6,1.1,2.2,1.9c0,0.1,0.1,0.1,0.2,0.1c0.1,0.1,0.2,0,0.4-0.2s0.4-0.3,0.5-0.3s0.1,0.1,0.1,0.2l0,0
				c-0.1,0.1-0.2,0.2-0.2,0.3c-0.2,0.4-0.7,1.2-1.3,2.5c-0.1,0.3-0.3,0.5-0.5,0.4s-0.2-0.2-0.1-0.4c0.4-0.8,0.5-1.7,0.3-2.6
				c-0.2-0.8-0.8-1.4-1.6-1.8c-0.9-0.5-2-0.4-2.9,0.2c-1.1,0.8-2,1.9-2.5,3.2c-0.6,1.2-0.9,2.5-0.8,3.8c0.1,1,0.7,1.9,1.7,2.3
				c0.9,0.4,1.5,0.4,2-0.1c0.2-0.2,0.4-0.5,0.5-0.9c0.2-0.3,0.3-0.6,0.3-0.9c-0.2-0.2-0.5-0.4-0.8-0.5l-0.1-0.1l-0.2-0.1
				c-0.1-0.1-0.1-0.1-0.1-0.2s0.3-0.1,0.6,0.1l0.6,0.3l0.5,0.2l0.3,0.1l1.7,0.8l0.4,0.2C142.4,383.5,142.4,383.7,142.4,383.8z"/>
		</g>
		<g>
			<path class="st0" d="M151.7,391c0,0.1-0.2,0.1-0.5,0l-0.1-0.1l-1.4-0.5l-0.6-0.2l-1.1-0.4l-0.7-0.3l-0.4-0.2h-0.1
				c-0.3-0.1-0.4-0.2-0.3-0.3s0.3-0.1,0.9,0.1s1,0.3,1.1,0.2c0-0.2,0-0.3,0-0.5c0-0.1,0-0.7,0.1-1.7v-0.9l-3.2-1.3
				c-0.7,0.7-1.4,1.5-2,2.3c0,0.1,0,0.3,0.2,0.3l0.3,0.1l0.3,0.1l0.2,0.1c0.2,0.1,0.3,0.1,0.2,0.2c0,0.1-0.2,0.1-0.5,0l-0.8-0.4
				l-1.3-0.5l-0.2-0.1h-0.2l-0.3-0.1l0,0c-0.2-0.1-0.3-0.2-0.3-0.3s0.2-0.1,0.4-0.1s0.5,0.1,0.6,0.2c0.2,0.1,0.4,0.1,0.6,0
				c0.8-0.6,1.5-1.4,2.1-2.1c0.5-0.6,1-1.1,1.5-1.6c0.1-0.1,0.3-0.3,0.4-0.4c0.1-0.1,0.2-0.2,0.4-0.4c0.5-0.5,1.2-1.3,2.2-2.4
				l0.7-0.8l0.3-0.4c0.2-0.2,0.3-0.3,0.4-0.2s0.1,0.3,0,0.7c0,1.3,0,4.6,0.1,10c0,0.5,0.1,0.8,0.2,0.9s0.3,0.1,0.7,0.4
				C151.7,390.8,151.8,390.9,151.7,391z M148.6,385.7l0.1-4.4c-0.7,0.8-1.7,1.8-3,3.2L148.6,385.7z"/>
		</g>
		<g>
			<path class="st0" d="M164.6,389.5c-0.5,1.7-1.7,3-3.4,3.5c-1.4,0.4-2.8,0.3-4.1-0.1l-0.5-0.2l-1.9-0.6l-0.5-0.2l-0.4-0.1
				l-0.9-0.3l-0.2-0.1c-0.3-0.1-0.4-0.2-0.3-0.3s0.1-0.2,0.3-0.1l0.5,0.2c0.3,0.1,0.5,0.1,0.6-0.1c0.1-0.3,0.2-0.5,0.3-0.8l2.3-7.3
				c0.1-0.4,0.2-0.8,0.3-1.2c0-0.1-0.3-0.3-0.8-0.4c-0.3-0.1-0.4-0.2-0.4-0.3s0.2-0.1,0.5,0l0.2,0.1l0.8,0.3l1.5,0.5
				c1.4,0.4,2.8,1,4.1,1.7c0.9,0.6,1.6,1.5,1.9,2.5C164.9,387.2,164.9,388.4,164.6,389.5z M162.4,388.7c1-3.2,0.2-5.1-2.3-5.9
				c-0.4-0.2-0.9-0.3-1.3-0.3c-0.1,0-0.2,0.3-0.4,0.8l-2.6,8.1c-0.1,0.3-0.1,0.5,0,0.6c0.3,0.2,0.6,0.3,1,0.4
				C159.5,393.2,161.4,392,162.4,388.7z"/>
		</g>
		<g>
			<path class="st0" d="M174.2,394.7l-0.1,0.3c-0.1,0.2-0.1,0.3-0.2,0.5l-0.3,1.4c0,0.2-0.1,0.3-0.1,0.5l-3.9-1l-4.5-1
				c-0.3-0.1-0.5-0.2-0.4-0.3c0-0.1,0.1-0.2,0.3-0.1c0.3,0.1,0.6,0.1,0.9,0.1c0.1,0,0.2-0.3,0.3-0.7l1.9-8c0.1-0.6,0.2-1,0.1-1.1
				c-0.3-0.1-0.5-0.2-0.8-0.3c-0.2,0-0.3-0.1-0.2-0.2s0.1-0.2,0.4-0.1l0.6,0.1l0.5,0.1l0.3,0.1l0.6,0.1l1.2,0.3l2.6,0.6l1.4,0.3
				l1,0.2v0.2l-0.1,0.4c0,0.2-0.1,1-0.3,2.1c0,0.1,0,0.2,0,0.3c0,0.2-0.1,0.3-0.2,0.3s-0.2-0.2-0.2-0.5c0.1-1.2-0.2-2-0.7-2.4
				c-0.8-0.3-1.6-0.6-2.4-0.8l-1.2-0.3l-1.1,4.3l0.6,0.1c0.6,0.2,1.2,0.3,1.9,0.2c0.3-0.1,0.5-0.5,0.8-1.2c0.1-0.4,0.3-0.6,0.4-0.6
				s0.2,0.2,0.1,0.5s-0.1,0.5-0.2,0.9c-0.1,0.3-0.2,0.6-0.3,0.9c-0.3,1-0.4,1.7-0.4,2.1c0,0.1,0,0.2-0.1,0.3
				c-0.1,0.3-0.2,0.4-0.3,0.3s-0.2-0.3-0.1-0.6c0.1-0.5,0.1-1.1-0.1-1.6c-0.5-0.4-1.1-0.6-1.8-0.7l-0.6-0.1l-1.2,5
				c1.3,0.4,2.7,0.6,4.1,0.8c0.7,0,1.2-0.7,1.6-2c0.1-0.2,0.2-0.3,0.3-0.3S174.3,394.2,174.2,394.7z"/>
		</g>
		<g>
			<path class="st0" d="M190.5,395.9c-0.2,1.2-0.8,2.2-1.9,2.9c-1.1,0.7-2.4,1-3.6,0.8c-1.4-0.2-2.6-0.8-3.6-1.8
				c-0.8-0.8-1.3-2-1.1-3.2c0.2-1.3,1-2.4,2.2-3c0.9-0.4,1.8-0.6,2.8-0.6v-0.1c-2.5-0.7-3.6-2.1-3.3-4.1c0.1-1.1,0.7-2.1,1.7-2.6
				c2.1-1.2,4.7-0.8,6.3,0.9c0.7,0.8,1,1.9,0.8,3c-0.3,1.8-1.6,2.8-4.1,3.1v0.1c1,0.3,1.9,0.8,2.6,1.5
				C190.3,393.5,190.7,394.7,190.5,395.9z M188.4,395.5c0.2-1,0.1-2-0.4-2.9c-0.4-0.7-1.2-1.2-2-1.3c-0.8-0.1-1.7,0.2-2.2,0.9
				c-0.7,0.8-1.1,1.7-1.3,2.8c-0.2,1,0,2,0.5,2.8c0.4,0.8,1.2,1.3,2.1,1.4c0.8,0.1,1.6-0.1,2.1-0.8
				C187.9,397.5,188.3,396.5,188.4,395.5z M188.8,387.6c0.3-2.3-0.2-3.6-1.6-3.8c-0.7-0.1-1.4,0.2-1.8,0.7c-0.6,0.7-0.9,1.6-1,2.5
				c-0.3,2.2,0.3,3.5,1.8,3.7S188.4,389.9,188.8,387.6z"/>
		</g>
		<g>
			<path class="st0" d="M201.6,401c-0.1,1.7-1.1,3.2-2.6,4c-1.2,0.7-2.5,1-3.9,0.9c-0.8,0-1.7-0.4-2.3-0.9c-0.6-0.4-0.9-1-0.9-1.7
				c0-0.3,0.2-0.7,0.5-0.9c0.3-0.2,0.6-0.3,1-0.3c0.3,0,0.6,0.1,0.8,0.4c0.2,0.2,0.3,0.5,0.3,0.8c0,0.2-0.1,0.4-0.2,0.6
				c-0.2,0.2-0.5,0.4-0.8,0.5c-0.1,0-0.1,0.1-0.2,0.2c0,0.2,0.2,0.3,0.5,0.5c1.4,0.6,3.1,0.3,4.1-0.7c0.8-0.9,1.3-2.1,1.3-3.3
				c0.1-1.1-0.1-2.2-0.8-3.2c-0.5-0.8-1.4-1.4-2.4-1.5c-1,0-1.9,0.3-2.7,0.9l0.1-0.7c0-0.1,0.2-1.6,0.5-4.5c0-0.7,0.2-1.4,0.4-2
				c0.2-0.2,0.7-0.3,1.5-0.2s1.7,0.1,2.5,0.2l1.3,0.1c0.2,0,0.4,0,0.6-0.1c0.2-0.2,0.3-0.4,0.3-0.6s0.1-0.3,0.3-0.3s0.2,0.1,0.2,0.3
				c0,0.2,0,0.3-0.1,0.5l-0.1,0.7c0,0.5-0.2,0.9-0.4,1.3c-0.3,0.2-0.7,0.3-1.1,0.3c-0.7,0-1.4-0.1-2.1-0.3l-1.1-0.1
				c-0.3,0-0.8,0-1.5-0.1v0.3l-0.1,1c0,0.2-0.1,1.3-0.3,3.3c0.9-0.4,2-0.6,3-0.5c1.3,0.1,2.5,0.6,3.4,1.6
				C201.4,398.5,201.7,399.7,201.6,401z"/>
		</g>
		<g>
			<path class="st0" d="M214.4,396.2l-6.6,0.1v-1.2l6.6-0.1V396.2z"/>
		</g>
		<g>
			<path class="st0" d="M230.3,395.7c0,0.7,0,1.4,0,2.1s0,1.4,0,2.1c-0.6,0-1.6,0.1-3.2,0.2c-0.8,0-1.4,0.1-1.7,0.1
				c-2.1,0.2-3.6,0.4-4.6,0.6h-0.2c-0.2,0-0.3-0.1-0.3-0.2s0.9-0.8,2.9-2c1.1-0.7,2-1.5,2.7-2.6c0.6-0.9,0.9-1.9,0.8-3
				c0-0.8-0.4-1.5-1-2s-1.4-0.7-2.1-0.6c-0.7,0-1.4,0.3-1.9,0.8c-0.4,0.3-0.6,0.8-0.6,1.3c0,0.2,0.1,0.3,0.1,0.3
				c0.3,0.1,0.6,0.1,0.9,0.2c0.5,0.1,0.8,0.3,0.8,0.7c0,0.3-0.1,0.6-0.2,0.8c-0.2,0.2-0.4,0.3-0.7,0.4c-0.4,0-0.8-0.1-1.1-0.4
				s-0.5-0.7-0.5-1.2c-0.1-0.9,0.3-1.8,1-2.3c0.8-0.7,1.8-1.1,2.8-1.2c1.2-0.2,2.3,0.1,3.3,0.8c0.8,0.6,1.3,1.4,1.4,2.4
				c0.1,1.3-0.6,2.5-2.1,3.8c-0.3,0.2-0.8,0.6-1.6,1.1c-0.5,0.3-1,0.7-1.5,1c-0.1,0-0.2,0.1-0.2,0.1s0.1,0,0.4,0
				c1.5-0.1,2.8-0.2,3.9-0.3c0.6,0,1.2-0.2,1.7-0.5c0.3-0.6,0.4-1.2,0.4-1.8c0-0.2,0-0.4,0.1-0.6c0-0.1,0.1-0.1,0.2-0.1
				C230.2,395.4,230.3,395.5,230.3,395.7z"/>
		</g>
		<g>
			<path class="st0" d="M241.9,398.6c0.2,1.4-0.2,2.8-1.1,3.8c-1,1.2-2.3,1.9-3.8,2.1c-0.9,0.2-1.8,0-2.7-0.3
				c-0.7-0.3-1.2-0.9-1.3-1.6c-0.1-0.3,0-0.7,0.2-0.9c0.2-0.3,0.5-0.4,0.9-0.5c0.8-0.1,1.2,0.2,1.3,0.9c0,0.5-0.2,0.9-0.5,1.3
				c-0.1,0.1-0.1,0.2-0.1,0.3c0,0.1,0.3,0.3,0.7,0.4s0.9,0.1,1.3,0.1c0.9-0.1,1.7-0.6,2.2-1.4c0.7-1.2,0.9-2.5,0.6-3.8
				c-0.1-1.1-0.7-2.2-1.6-2.8c-0.6-0.3-1.3-0.4-2-0.3c-0.5,0.1-0.8,0-0.8-0.1s0.2-0.3,0.6-0.4c0.4-0.1,0.9-0.3,1.3-0.6
				c0.4-0.3,0.7-0.6,0.9-1c0.3-0.7,0.4-1.5,0.3-2.3c-0.1-0.9-0.6-1.8-1.5-2.2c-0.5-0.2-1.1-0.3-1.7-0.2c-0.6,0.1-1.3,0.3-1.7,0.8
				c-0.2,0.2-0.4,0.5-0.4,0.8c0,0.1,0.2,0.2,0.6,0.3c0.6,0,1,0.4,1.1,0.9c0,0.2-0.1,0.5-0.2,0.7c-0.2,0.2-0.4,0.4-0.7,0.4
				c-0.4,0.1-0.7,0-1-0.3c-0.3-0.2-0.5-0.6-0.6-1c-0.1-0.8,0.2-1.6,0.8-2.1c0.7-0.7,1.7-1.1,2.7-1.2c1.1-0.2,2.3-0.1,3.3,0.4
				c0.8,0.5,1.4,1.3,1.5,2.3c0.2,1-0.1,1.9-0.8,2.6c-0.8,0.8-1.8,1.4-2.9,1.7v0.1c1-0.2,2-0.1,3,0.3
				C240.8,396.1,241.8,397.3,241.9,398.6z"/>
		</g>
		<g>
			<path class="st0" d="M254.4,390.3c0.4,1.6-0.1,3.3-1.3,4.5c-0.9,1-2.1,1.7-3.4,2c-1.5,0.4-3,0.1-4.4-0.6
				c-1.3-0.7-2.2-1.9-2.5-3.3c-0.2-0.9-0.2-1.9,0.1-2.8s0.9-1.8,1.6-2.5c0.9-0.8,2-1.4,3.1-1.6c0.7-0.2,1.5-0.2,2.3,0
				c0.7,0.1,1.4,0.4,2.1,0.8C253.2,387.5,254.1,388.8,254.4,390.3z M252.4,390.5c-0.2-1.3-0.9-2.4-1.8-3.2c-0.8-0.7-1.9-1-3-0.7
				c-1.1,0.2-1.9,1-2.3,2c-0.5,1.3-0.5,2.6-0.1,3.9c0.2,1.4,1,2.6,2.2,3.4c0.7,0.5,1.6,0.6,2.4,0.5c1.2-0.3,2.2-1.2,2.7-2.4
				C252.7,392.8,252.7,391.6,252.4,390.5L252.4,390.5z"/>
		</g>
		<g>
			<path class="st0" d="M267.6,386.1c0.5,1.6,0.2,3.3-0.9,4.6c-0.8,1.1-1.9,1.9-3.2,2.3c-1.4,0.5-3,0.4-4.4-0.3
				c-1.3-0.6-2.4-1.7-2.8-3.1c-0.3-0.9-0.3-1.9-0.1-2.8c0.2-1,0.7-1.8,1.4-2.6c0.8-0.9,1.9-1.5,3-1.9c0.7-0.2,1.5-0.3,2.2-0.2
				C265.1,382.3,267.1,383.9,267.6,386.1L267.6,386.1z M265.6,386.5c-0.3-1.2-1.1-2.3-2.1-3.1c-0.9-0.6-2-0.8-3.1-0.5
				c-1,0.3-1.8,1.2-2.1,2.2c-0.4,1.3-0.3,2.7,0.2,3.9c0.3,1.3,1.2,2.5,2.5,3.2c0.7,0.4,1.6,0.5,2.4,0.3c1.2-0.4,2.2-1.3,2.5-2.6
				C266.1,388.8,266,387.6,265.6,386.5L265.6,386.5z"/>
		</g>
		<g>
			<path class="st0" d="M286.1,383.7c0,0.1,0,0.1,0,0.2l-0.5,0.2l-0.4,0.2l-3.3,1.4c-0.3,0.1-0.4,0.1-0.5,0s0.2-0.3,0.6-0.5
				c0.3-0.2,0.4-0.3,0.4-0.4c-0.2-0.2-0.5-0.3-0.8-0.4c-0.5-0.2-2.2-1-5.2-2.3l1.7,4c0.1,0.4,0.3,0.5,0.4,0.6c0.3,0,0.6-0.1,0.9-0.3
				c0.2-0.1,0.3,0,0.3,0.1s0,0.2-0.3,0.3l-0.2,0.1l-2.1,0.9l-1.2,0.5l-0.1,0.1c-0.2,0.1-0.3,0.1-0.4,0s0.1-0.3,0.6-0.5
				c0.3-0.1,0.4-0.3,0.5-0.4c-0.1-0.3-0.2-0.7-0.4-1l-3.2-7.4c-0.1-0.2-0.2-0.5-0.3-0.7c-0.1-0.1-0.3-0.1-0.7,0.1s-0.6,0.2-0.6,0
				s0-0.2,0.2-0.3l0.2-0.1c0.1,0,0.2-0.1,0.4-0.1l1.4-0.6l0.9-0.4l0.8-0.4c0.2-0.1,0.3-0.1,0.4,0s-0.2,0.3-0.6,0.5
				c-0.1,0.1-0.3,0.2-0.4,0.3c0,0.1,0,0.2,0.1,0.4l1.6,3.6c0.9-1.9,1.7-3.8,2.4-5.8c0-0.1-0.4,0-1,0.3c-0.2,0.1-0.3,0.1-0.3-0.1
				c0-0.1,0-0.2,0.1-0.2l0,0c0.1-0.1,0.5-0.2,1.1-0.5c1.1-0.5,1.8-0.8,2-0.9s0.3,0,0.4,0s0,0.3-0.3,0.4l-0.6,0.3
				c-0.2,0.1-0.4,0.3-0.6,0.7c-0.1,0.2-0.3,0.6-0.5,1.2c-0.4,0.8-0.9,2-1.6,3.7c0.3,0.1,1.3,0.5,3,1.2l3.8,1.5
				c0.4,0.2,0.7,0.3,1.1,0.4c0.2,0,0.5,0,0.7-0.1C286,383.5,286.1,383.6,286.1,383.7z"/>
		</g>
		<g>
			<path class="st0" d="M294,373.6c0.7,1.3,0.9,2.8,0.5,4.2c-0.3,1.4-1.2,2.5-2.5,3.2c-0.9,0.5-1.9,0.7-2.9,0.7l-0.1,1.5
				c0,0.1-0.1,0.3-0.2,0.4c-0.2,0.1-0.3,0.1-0.4-0.1c0-0.1,0-0.3,0-0.4l0.1-1.5c-3.2-0.7-5.3-3.9-4.6-7.1c0-0.1,0-0.1,0-0.2
				c0.4-1.4,1.4-2.6,2.7-3.2c0.8-0.4,1.7-0.6,2.6-0.6l0.1-1.9c0-0.1,0.1-0.2,0.2-0.3c0.2-0.1,0.3-0.1,0.4,0.1c0,0.1,0,0.3,0,0.4
				l-0.1,1.7C291.6,370.8,293.2,372,294,373.6z M289.1,371.5c-0.7-0.4-1.6-0.5-2.4,0c-1,0.6-1.6,1.7-1.4,2.9
				c0.2,1.2,0.5,2.3,1.1,3.3c0.5,1,1.2,1.9,2.1,2.7L289.1,371.5z M292,374.7c-0.6-1.1-1.4-2.1-2.3-2.9l-0.5,8.8
				c0.8,0.5,1.8,0.5,2.7,0c0.8-0.4,1.3-1.3,1.3-2.2C293.1,377.2,292.7,375.9,292,374.7L292,374.7z"/>
		</g>
		<g>
			<path class="st0" d="M304.1,370.3c0.4,0.6,0.5,1.3,0.3,2c-0.3,0.8-0.7,1.5-1.4,2c-1,0.8-2,1.4-3.1,2.1l-1.3,0.8l0,0l-0.3,0.2
				c-0.1,0.1-0.2,0.1-0.2,0s0-0.1,0-0.2c0.1-0.1,0.3-0.2,0.5-0.3c0.3-0.2,0.4-0.3,0.4-0.4c0-0.2-0.1-0.4-0.3-0.5l-4.6-7.4
				c-0.1-0.2-0.3-0.4-0.5-0.6c-0.1,0-0.3,0.1-0.7,0.3s-0.5,0.2-0.5,0.1s0-0.3,0.4-0.4l0.4-0.2l1.2-0.7l1-0.6c0.9-0.6,1.5-0.9,1.8-1
				c0.3-0.2,0.7-0.3,1-0.4c1-0.3,2.1,0.1,2.6,0.9c0.8,1.2,0.3,2.6-1.5,4h0.1c0.8-0.5,1.8-0.8,2.8-0.8
				C303,369.2,303.7,369.6,304.1,370.3z M299,367.1c-0.5-0.9-1.1-1.3-1.6-1.3c-0.5,0.1-0.9,0.2-1.3,0.5c-0.2,0.1-0.3,0.2-0.5,0.3
				l-0.1,0.1l2.4,3.8c0.5-0.3,1-0.7,1.4-1.1C299.6,368.7,299.5,367.8,299,367.1L299,367.1z M302.2,371.3c-0.9-1.4-2.1-1.7-3.8-0.6
				L298,371l2.5,4.1c0.1,0.2,0.2,0.3,0.3,0.2c0.2-0.1,0.4-0.2,0.6-0.3C302.9,374,303.2,372.8,302.2,371.3z"/>
		</g>
		<g>
			<path class="st0" d="M313.1,364.5l0.1,0.3c0.1,0.1,0.2,0.3,0.3,0.4l0.8,1.1c0.1,0.1,0.2,0.3,0.3,0.4l-3.3,2.3l-3.7,2.7
				c-0.3,0.2-0.5,0.2-0.5,0.1s0-0.2,0.1-0.3c0.4-0.3,0.6-0.5,0.7-0.6s-0.1-0.4-0.3-0.7l-4.8-6.7c-0.4-0.5-0.6-0.8-0.7-0.8
				c-0.3,0.1-0.5,0.3-0.7,0.4c-0.1,0.1-0.3,0.1-0.3,0s0-0.2,0.1-0.3l0.5-0.3l0.4-0.3l0.2-0.1l0.5-0.4l1-0.7l2.1-1.5l1.2-0.8l0.9-0.6
				l0.1,0.1l0.2,0.3c0.2,0.2,0.6,0.7,1.4,1.6c0.1,0.1,0.1,0.1,0.2,0.2c0.1,0.2,0.1,0.3,0,0.3s-0.3,0-0.5-0.2c-0.9-0.9-1.6-1.2-2.3-1
				c-0.8,0.4-1.5,0.8-2.1,1.3l-1,0.7l2.6,3.7l0.5-0.3c0.6-0.3,1-0.8,1.4-1.3c0-0.5-0.1-1-0.4-1.4c-0.2-0.4-0.3-0.6-0.1-0.7
				s0.3,0,0.5,0.3s0.3,0.4,0.5,0.7s0.4,0.6,0.5,0.8c0.6,0.9,1,1.4,1.3,1.7c0.1,0.1,0.1,0.2,0.2,0.3c0.1,0.2,0.1,0.4,0,0.5
				s-0.3,0-0.6-0.3c-0.6-0.6-1-1-1.3-1c-0.6,0.2-1.2,0.4-1.7,0.9l-0.5,0.3l3,4.2c1.2-0.8,2.2-1.6,3.3-2.5c0.4-0.5,0.3-1.4-0.4-2.5
				c-0.1-0.2-0.1-0.4,0-0.4S312.8,364.1,313.1,364.5z"/>
		</g>
		<g>
			<path class="st0" d="M317.3,350.6c0.1,0.1,0,0.2-0.3,0.5l-0.3,0.2l-0.2,0.2c-0.1,0.1-0.1,0.2-0.1,0.2c0.1,0.2,0.2,0.4,0.4,0.5
				l5.6,6.9c0.2,0.3,0.4,0.5,0.6,0.8c0,0.1,0,0.2-0.1,0.3c-0.9,0-1.8-0.2-2.6-0.5c-0.2-0.1-0.5-0.1-0.9-0.2l-0.4-0.1
				c-1.3-0.3-3.7-1-7.2-1.9l4.8,5.9c0.4,0.5,0.6,0.7,0.8,0.6c0.3-0.2,0.5-0.3,0.8-0.5l0.1-0.1c0.1-0.1,0.3-0.1,0.3-0.1
				s0,0.3-0.3,0.5l-0.6,0.5l-0.5,0.4c-0.1,0.1-0.3,0.2-0.4,0.3c-0.2,0.2-0.5,0.5-0.7,0.7s-0.3,0.2-0.4,0.1s0-0.2,0.3-0.4l0.2-0.1
				l0.2-0.2c0.3-0.3,0.4-0.5,0.3-0.5c-0.1-0.2-0.3-0.4-0.4-0.6l-4.2-5.2c-0.4-0.6-0.9-1.1-1.5-1.6c-0.4-0.1-0.9,0-1.2,0.3
				c-0.3,0.3-0.5,0.3-0.6,0.2s0-0.2,0.1-0.3l0.1-0.1l1-0.8l0.3-0.2l0.3-0.3l0.7-0.6l9.3,2.5l-4.2-5.2c-0.1-0.2-0.3-0.4-0.5-0.5
				c-0.1,0-0.2,0-0.4,0.2l-0.4,0.3l-0.1,0.1c-0.2,0.2-0.4,0.2-0.5,0.1s0-0.1,0.1-0.2s0.5-0.5,1.3-1s1.1-0.9,1.2-1
				S317.3,350.5,317.3,350.6z"/>
		</g>
		<g>
			<path class="st0" d="M333.3,350.2c0.1,0.1-0.1,0.3-0.4,0.6l-0.2,0.2l-0.3,0.3l-1.3,1.2l-0.4,0.4l-0.3,0.3
				c-0.3,0.3-0.4,0.3-0.5,0.3s0-0.2,0.2-0.4c0.4-0.4,0.5-0.6,0.5-0.7c-0.1-0.2-0.3-0.4-0.5-0.6l-3-3.2l-3.3,3.1l3.4,3.6
				c0.1,0.1,0.2,0.1,0.4,0.1c0.2-0.1,0.5-0.3,0.7-0.5c0.1-0.1,0.2-0.1,0.3,0s0,0.2-0.2,0.5l-0.3,0.3l-0.7,0.7l-1.7,1.6
				c-0.2,0.2-0.3,0.2-0.4,0.1s0-0.3,0.4-0.6s0.3-0.5,0.2-0.6l-6.1-6.6c-0.3-0.3-0.5-0.5-0.5-0.5c-0.1-0.1-0.3,0-0.5,0.2
				c-0.4,0.4-0.7,0.5-0.8,0.4s0-0.2,0.1-0.3l0.1-0.1l0.7-0.7l0.5-0.5l0.7-0.7l0.6-0.6l0.1-0.1c0.2-0.2,0.4-0.2,0.4-0.1
				s0,0.3-0.3,0.6s-0.3,0.3-0.3,0.4s0.1,0.2,0.3,0.4l2.6,2.8l3.3-3.1l-2.2-2.4c-0.2-0.2-0.4-0.4-0.6-0.6c-0.1-0.1-0.3-0.1-0.5,0.1
				l-0.3,0.3c-0.2,0.1-0.3,0.1-0.4,0s0-0.3,0.2-0.5l0.4-0.3l0.7-0.6l0.7-0.6l0.6-0.5l0.2-0.2c0.3-0.3,0.5-0.4,0.5-0.3
				c0.1,0.1,0,0.2-0.1,0.4s-0.3,0.3-0.4,0.4s-0.2,0.3-0.2,0.3c0.1,0.2,0.3,0.4,0.5,0.6l5.7,6.1c0.4,0.4,0.6,0.6,0.7,0.6
				c0.3-0.1,0.5-0.3,0.7-0.5C333.1,350.1,333.2,350.1,333.3,350.2z"/>
		</g>
		<g>
			<path class="st0" d="M341.9,341.1c0.1,0.1,0,0.2-0.2,0.5l-0.1,0.1l-1,1.1l-0.5,0.5l-0.8,0.8l-0.5,0.5l-0.3,0.3l-0.1,0.1
				c-0.2,0.2-0.3,0.3-0.4,0.2s0-0.3,0.4-0.8s0.6-0.8,0.5-0.9s-0.3-0.1-0.4-0.2s-0.6-0.3-1.5-0.7l-0.8-0.3l-2.3,2.5
				c0.4,0.9,0.9,1.8,1.4,2.7c0.1,0.1,0.2,0.1,0.4,0l0.2-0.2l0.2-0.3l0.2-0.1c0.1-0.1,0.2-0.2,0.3-0.1s0,0.2-0.2,0.5l-0.6,0.6
				c-0.4,0.4-0.7,0.7-1,1l-0.1,0.2l-0.1,0.2l-0.2,0.2l0,0c-0.2,0.2-0.3,0.3-0.4,0.2s0-0.2,0.1-0.4c0.1-0.1,0.2-0.3,0.4-0.5
				c0.1-0.1,0.2-0.3,0.2-0.5c-0.3-0.9-0.7-1.9-1.2-2.7c-0.3-0.7-0.7-1.3-0.9-2c-0.1-0.2-0.2-0.3-0.2-0.5c-0.1-0.2-0.2-0.3-0.2-0.5
				c-0.3-0.6-0.8-1.6-1.4-2.9l-0.5-1l-0.2-0.4c-0.1-0.2-0.1-0.4-0.1-0.5c0.2,0,0.5,0.1,0.7,0.2c1.2,0.5,4.3,1.6,9.3,3.6
				c0.5,0.2,0.8,0.2,1,0.1s0.2-0.2,0.6-0.5S341.8,341,341.9,341.1z M335.8,342.1l-4-1.7c0.4,0.9,1.1,2.3,1.9,4L335.8,342.1z"/>
		</g>
		<g>
			<path class="st0" d="M340.8,325.6c0.1,0.1,0.1,0.2-0.1,0.4c-0.2,0.2-0.4,0.5-0.5,0.8c0,0.2,0.1,0.5,0.2,0.7l0.2,0.4
				c1.2,2.1,2.8,4.9,4.9,8.4c0.2,0.4,0.3,0.6,0.2,0.7s-0.3,0.1-0.7,0c-1.8-0.6-4.3-1.5-7.5-2.5l-1.9-0.6c-0.3-0.2-0.7-0.2-1-0.2
				c-0.3,0.2-0.6,0.5-0.8,0.8c-0.1,0.1-0.2,0.2-0.3,0.1s-0.1-0.2,0-0.4l0.6-0.7l1-1.2l0.5-0.6l0.5-0.6l0.4-0.5
				c0.3-0.3,0.4-0.4,0.5-0.4c0.1,0.1,0.1,0.2-0.1,0.4l-0.2,0.3l-0.3,0.4c-0.3,0.4-0.4,0.6-0.3,0.7s1.2,0.4,3.4,1.2l4,1.4l-1.4-2.5
				l-1.4-2.5c-0.3-0.7-0.7-1.3-1.1-1.9c-0.1-0.1-0.3,0-0.5,0.1l-0.4,0.4l-0.2,0.3c-0.1,0.1-0.2,0.1-0.2,0.1c-0.1-0.1,0-0.4,0.2-0.7
				l0.3-0.4l0.4-0.5c0.1-0.1,0.3-0.2,0.4-0.4c0.1-0.1,0.2-0.3,0.2-0.4l0.4-0.5l0,0C340.6,325.6,340.7,325.5,340.8,325.6z"/>
		</g>
		<g>
			<path class="st0" d="M347,317c0.1,0.1,0,0.2-0.2,0.5l-0.2,0.3l-0.1,0.2c-0.1,0.1-0.1,0.2-0.1,0.3c0.2,0.1,0.3,0.3,0.5,0.4
				l7.2,5.1c0.5,0.3,0.7,0.5,0.8,0.6s0.1,0.2,0,0.3c-0.9,0.2-1.7,0.3-2.6,0.2c-0.2,0-0.5,0-0.9,0H351c-1.3,0-3.8,0-7.4,0l6.2,4.4
				c0.5,0.3,0.8,0.5,0.9,0.3c0.2-0.2,0.4-0.5,0.6-0.7l0.1-0.1c0.1-0.1,0.2-0.2,0.3-0.1s0,0.3-0.2,0.5c0,0-0.2,0.3-0.5,0.6l-0.4,0.5
				c-0.1,0.1-0.2,0.3-0.3,0.4c-0.2,0.3-0.3,0.6-0.5,0.8c-0.1,0.2-0.3,0.3-0.4,0.2s0-0.2,0.1-0.5l0.1-0.2l0.2-0.3
				c0.2-0.3,0.3-0.5,0.2-0.6c-0.2-0.2-0.4-0.3-0.5-0.4l-5.4-3.8c-0.6-0.5-1.2-0.8-1.9-1.1c-0.4,0-0.8,0.2-1,0.6
				c-0.2,0.3-0.4,0.5-0.5,0.4s-0.1-0.2,0-0.3l0.1-0.1l0.8-1.1l0.2-0.3c0.1-0.1,0.2-0.3,0.3-0.4l0.5-0.7l9.6-0.1l-5.4-3.9
				c-0.2-0.1-0.4-0.3-0.6-0.4c-0.1,0-0.2,0.1-0.3,0.3l-0.3,0.4l-0.1,0.1c-0.2,0.3-0.3,0.3-0.4,0.3s0-0.1,0-0.3s0.4-0.6,0.9-1.3
				s0.8-1.1,0.9-1.2S346.9,317,347,317z"/>
		</g>
		<g>
			<path class="st0" d="M360.3,309.8c0.8,0.5,1.3,1.3,1.4,2.2c0.2,1,0,2-0.6,2.9c-0.5,0.8-1.1,1.4-1.9,1.8c-0.1,0-0.1,0.1-0.1,0.1
				c0,0.1,0,0.2,0.1,0.3c0.1,0.1,0.2,0.2,0.3,0.3c0.1,0.1,0.1,0.3,0,0.4s-0.2,0.1-0.3,0l-0.6-0.4c-0.4-0.3-0.7-0.5-1-0.6l-0.5-0.3
				l-0.5-0.3c-0.3-0.2-0.4-0.3-0.3-0.4s0.4-0.1,0.8,0.1c1.7,0.6,2.9,0.3,3.7-1.1c0.6-0.8,0.5-1.9-0.3-2.5c-0.1-0.1-0.3-0.2-0.4-0.3
				c-0.4-0.3-1-0.4-1.5-0.3c-0.7,0.2-1.4,0.6-2,1c-0.7,0.5-1.5,1-2.4,1.3c-0.6,0.1-1.3,0-1.8-0.3c-0.7-0.4-1.2-1.1-1.4-1.9
				c-0.2-0.9,0-1.8,0.5-2.5c0.4-0.6,0.9-1.1,1.5-1.4c0.1,0,0.1-0.1,0.2-0.1c0-0.1,0-0.2-0.2-0.4s-0.2-0.3-0.2-0.4s0.2-0.2,0.3-0.1
				c0,0,0,0,0.1,0l0.2,0.1c0.3,0.2,0.5,0.4,0.8,0.5c0.2,0.1,0.6,0.3,1.1,0.6c0.1,0,0.1,0.1,0.2,0.1c0.2,0.1,0.2,0.2,0.1,0.3
				s-0.3,0.1-0.5,0c-0.6-0.2-1.3-0.3-1.9-0.1c-0.6,0.1-1,0.5-1.3,1c-0.5,0.7-0.4,1.7,0.3,2.2c0.1,0.1,0.3,0.2,0.4,0.2
				c0.4,0.3,0.9,0.4,1.4,0.4c0.2,0,0.5-0.1,0.7-0.2s0.7-0.5,1.6-1c0.7-0.5,1.5-0.9,2.4-1.2C359.2,309.5,359.8,309.6,360.3,309.8z"/>
		</g>
	</g>
</g>
<g>
	<circle class="st2" stroke-linecap="round" cx="210" cy="210" r="205.4"/>
</g>
</svg>
