<?xml version="1.0" encoding="utf-8"?>
<!-- Generator: Adobe Illustrator 23.0.0, SVG Export Plug-In . SVG Version: 6.00 Build 0)  -->
<svg version="1.1" id="Layer_1" xmlns="http://www.w3.org/2000/svg" xmlns:xlink="http://www.w3.org/1999/xlink" x="0px" y="0px"
	 viewBox="0 0 90.3 106.6" style="enable-background:new 0 0 90.3 106.6;" xml:space="preserve">
<style type="text/css">
	.st0{fill:#F4F4F2;}
	.st1{fill:#044326;}
</style>
<title>green_icon_ex</title>
<path class="st0" d="M1,2.9L89.3,1v79.5c0,0-36,26.1-41.5,25S2.9,82.8,2.9,82.8L1,2.9z"/>
<path class="st1" d="M64.4,61.5c0.1,4.7-2,9.2-5.5,12.3c-3.6,3.4-8.3,5.2-13.2,5.1c-3.8-0.2-7.5-1.1-10.8-2.8
	c-0.8-0.4-1.6-0.7-2.5-0.8c-0.7,0-1.1,0.8-1.3,2.3c-0.1,0.8-0.4,1.2-1.1,1.2s-0.8-0.3-0.8-1c0-0.3,0-0.7,0.1-1
	c0.4-3.1,0.7-6.3,0.7-9.5c0-0.6-0.1-2.1-0.2-4.7c-0.1-0.4-0.1-0.9-0.1-1.3c0-0.8,0.3-1.3,1-1.3s1,0.7,1.2,2
	C33.3,72.2,38,77.2,46,77.2c3.4,0,6.1-1,7.9-2.9c1.9-1.9,2.8-4.7,2.8-8.2c0.1-2.9-0.9-5.7-2.7-8c-1.8-2.2-4.9-4.4-9.3-6.6
	c-5.3-2.7-9-5.2-11.1-7.6c-2.1-2.6-3.2-5.8-3.1-9.2c-0.1-4.3,1.5-8.4,4.5-11.5c3-3,7.1-4.7,11.4-4.5c2.7,0.2,5.4,0.8,7.9,1.9
	c0.8,0.4,1.7,0.6,2.6,0.7c0.4,0.1,0.9-0.1,1.2-0.3c0.3-0.5,0.5-1.1,0.6-1.8c0-0.5,0.4-0.9,0.9-0.8c0.6,0,0.8,0.3,0.8,1
	c0,0.3,0,0.7-0.1,1c-0.2,1.6-0.3,3.2-0.3,4.9c0,2.1,0.1,4.3,0.4,6.4l0.1,1.4c0.1,0.6-0.2,0.9-0.8,0.9s-1-0.6-1.3-1.9
	c-0.5-3.2-2.1-6.1-4.4-8.3c-2-2.1-4.8-3.3-7.7-3.3c-2.5-0.1-5,0.9-6.7,2.7c-1.7,2-2.6,4.6-2.5,7.3c-0.1,3.3,1.2,6.4,3.6,8.7
	c1.3,1.2,4.2,3,8.7,5.2c5.3,2.6,9,5.3,11.3,8C63.2,54.8,64.5,58.1,64.4,61.5z"/>
</svg>
