<svg id="Layer_1" data-name="Layer 1" xmlns="http://www.w3.org/2000/svg" viewBox="0 0 30.9 30.98"><defs><style>.cls-1{fill:#fff;}</style></defs><title>insta_logo</title><path d="M.6,16c0-2.33-.06-4.67,0-7A8.3,8.3,0,0,1,9,.67C13,.57,17,.52,21,.56a16.85,16.85,0,0,1,4.42.56,7.72,7.72,0,0,1,5.74,6.62,22.63,22.63,0,0,1,.28,3.77c0,3.88,0,7.76-.13,11.64a8.31,8.31,0,0,1-8.29,8.24c-4,.11-8.08.17-12.13.11a16.87,16.87,0,0,1-4.74-.68,7.39,7.39,0,0,1-5.39-6.5A75.67,75.67,0,0,1,.6,16C.69,16,.52,16,.6,16Zm28.06,0h0c0-2,0-4.07,0-6.1a7.21,7.21,0,0,0-1.16-4.18,5.85,5.85,0,0,0-5-2.35c-4.65,0-9.3,0-13.95.12A5.17,5.17,0,0,0,3.62,7.59,9.2,9.2,0,0,0,3.31,9.8c0,4.17,0,8.33,0,12.49a6.9,6.9,0,0,0,1.15,4.05,5.9,5.9,0,0,0,5.08,2.34c4.58,0,9.16,0,13.74-.11a5.33,5.33,0,0,0,5.24-5.2C28.68,20.92,28.58,18.47,28.66,16Z" transform="translate(-0.57 -0.54)"/><path class="cls-1" d="M28.66,16c-.08,2.46,0,4.91-.14,7.36a5.33,5.33,0,0,1-5.24,5.2c-4.58.13-9.16.15-13.74.11a5.9,5.9,0,0,1-5.08-2.34,6.9,6.9,0,0,1-1.15-4.05c0-4.16,0-8.32,0-12.49a9.2,9.2,0,0,1,.31-2.21A5.17,5.17,0,0,1,8.53,3.5c4.65-.13,9.3-.15,14-.12a5.85,5.85,0,0,1,5,2.35,7.21,7.21,0,0,1,1.16,4.18c.05,2,0,4.07,0,6.1ZM8,16a7.95,7.95,0,1,0,7.89-7.92A7.88,7.88,0,0,0,8,16ZM24.3,9.57a1.87,1.87,0,0,0,1.84-1.82,1.92,1.92,0,0,0-1.89-1.87,1.86,1.86,0,0,0-1.82,1.91A1.8,1.8,0,0,0,24.3,9.57Z" transform="translate(-0.57 -0.54)"/><path d="M8,16a7.95,7.95,0,1,1,8,8A7.86,7.86,0,0,1,8,16Zm13.14.06A5.2,5.2,0,1,0,16,21.23,5.23,5.23,0,0,0,21.17,16.07Z" transform="translate(-0.57 -0.54)"/><path d="M24.3,9.57a1.8,1.8,0,0,1-1.87-1.78,1.86,1.86,0,0,1,1.82-1.91,1.92,1.92,0,0,1,1.89,1.87A1.87,1.87,0,0,1,24.3,9.57Z" transform="translate(-0.57 -0.54)"/><path class="cls-1" d="M21.17,16.07A5.2,5.2,0,1,1,16,10.83,5.24,5.24,0,0,1,21.17,16.07Z" transform="translate(-0.57 -0.54)"/><path d="M32.87,54.17" transform="translate(-0.57 -0.54)"/></svg>
