<?xml version="1.0" encoding="utf-8"?>
<!-- Generator: Adobe Illustrator 23.0.0, SVG Export Plug-In . SVG Version: 6.00 Build 0)  -->
<svg version="1.1" id="Layer_1" xmlns="http://www.w3.org/2000/svg" xmlns:xlink="http://www.w3.org/1999/xlink" x="0px" y="0px"
	 viewBox="0 0 821.4 800.4" style="enable-background:new 0 0 821.4 800.4;" xml:space="preserve">
<style type="text/css">
	.st0{fill:#004225;}
	.st1{opacity:0.41;enable-background:new    ;}
	.st2{enable-background:new    ;}
	.st3{fill:#F4F4F2;}
	.st4{fill:#19120E;}
</style>
<image style="display:none;overflow:visible;enable-background:new    ;" width="699" height="1117" xlink:href="A38CA0BC.jpg"  transform="matrix(0.9626 0 0 1.3945 97.6903 -390.7888)">
</image>
<title>Stylemann_logo_V2</title>
<g id="Cirkel">
	<g>
		<path class="st0" d="M410.7,765.1c-49.1,0-96.7-9.6-141.6-28.7c-43.3-18.4-82.2-44.7-115.6-78.2s-59.6-72.5-78-116
			c-19-45-28.6-92.8-28.6-142c0-49.3,9.6-97,28.6-142c18.3-43.4,44.5-82.5,78-116c33.4-33.5,72.3-59.8,115.6-78.2
			c44.8-19,92.4-28.6,141.6-28.6c49.1,0,96.7,9.6,141.6,28.7c43.3,18.4,82.2,44.7,115.6,78.2c33.4,33.5,59.6,72.5,78,116
			c19,45,28.6,92.8,28.6,142c0,49.3-9.6,97-28.6,142c-18.3,43.4-44.5,82.5-78,116c-33.4,33.5-72.3,59.8-115.6,78.2
			C507.4,755.5,459.8,765.1,410.7,765.1z M410.7,40.4c-48.4,0-95.4,9.5-139.6,28.3c-42.7,18.1-81.1,44.1-114,77.1
			c-33,33.1-58.8,71.5-76.9,114.4c-18.8,44.3-28.3,91.5-28.3,140.1s9.5,95.7,28.2,140.1c18.1,42.9,43.9,81.3,76.9,114.4
			c32.9,33.1,71.3,59,114,77.1c44.2,18.8,91.2,28.3,139.6,28.3s95.4-9.5,139.6-28.3c42.7-18.1,81.1-44.1,114-77.1
			c33-33.1,58.8-71.5,76.9-114.4c18.7-44.4,28.2-91.5,28.2-140.1s-9.5-95.7-28.2-140.1c-18.1-42.9-43.9-81.3-76.9-114.4
			s-71.3-59-114-77.1C506.1,49.9,459.1,40.4,410.7,40.4z"/>
	</g>
	<g class="st1">
		<circle class="st0" cx="410.9" cy="399.9" r="345.3"/>
		<path class="st0" d="M410.9,748.2c-93,0-180.5-36.2-246.3-102c-65.8-65.8-102-153.3-102-246.3s36.2-180.5,102-246.3
			s153.3-102,246.3-102s180.5,36.2,246.3,102s102,153.3,102,246.3s-36.2,180.5-102,246.3C591.4,712,503.9,748.2,410.9,748.2z
			 M410.9,57.6c-91.4,0-177.4,35.6-242,100.3S68.6,308.5,68.6,399.9s35.6,177.4,100.3,242c64.7,64.7,150.6,100.3,242,100.3
			s177.4-35.6,242-100.3c64.7-64.7,100.3-150.6,100.3-242s-35.6-177.4-100.3-242C588.3,93.2,502.3,57.6,410.9,57.6z"/>
	</g>
</g>
<g id="Tekst">
	<g class="st2">
		<path class="st3" d="M244.2,196.2c4.6,5.2,6.4,11.4,5.7,18.6c-0.8,7.1-4,13.2-9.6,18c-3.3,2.9-8.1,5.3-14.4,7.2
			c-1.7,0.5-2.8,1-3.5,1.6s-0.5,1.9,0.8,3.7c0.7,0.9,0.7,1.7,0,2.3c-0.6,0.5-1.2,0.4-1.9-0.3c-0.4-0.5-0.7-0.9-0.9-1.2
			c-2.7-4.1-5.5-7.8-8.2-10.9c-0.5-0.6-2.1-2.3-4.6-5c-0.4-0.3-0.8-0.8-1.4-1.4c-0.8-0.9-0.8-1.7-0.1-2.3c0.6-0.5,1.7-0.2,3.2,1.1
			c11.1,9.6,21,10.6,29.7,3c3.7-3.2,5.7-6.8,5.9-10.7c0.2-3.9-1.4-7.7-4.7-11.6c-3-3.4-6.5-5.5-10.5-6.1c-4.1-0.7-9.5-0.1-16.4,1.7
			c-8.3,2.2-14.7,2.9-19.3,2.2s-8.6-3.1-12-7c-4.4-5-6.4-10.6-6-16.8c0.4-6.1,3.1-11.3,8.1-15.7c2.1-1.8,5.5-3.6,10.4-5.4
			c1.7-0.6,2.9-1.2,3.5-1.7c0.7-0.6,1-1.1,1-1.5s-0.4-1.2-1.1-2.4c-0.4-0.7-0.3-1.3,0.2-1.8c0.6-0.5,1.2-0.4,1.9,0.3
			c0.4,0.5,0.7,0.9,0.9,1.2c1.1,1.6,2.5,3.5,4.3,5.5c2.5,2.9,4.7,5.1,6.5,6.5l1.4,1.4c0.6,0.6,0.7,1.2,0.1,1.7
			c-0.7,0.6-1.7,0.3-3.2-0.9c-3.8-3-8-4.6-12.6-4.9c-4.6-0.2-8.4,1-11.5,3.7c-3,2.6-4.6,5.7-4.7,9.2c-0.1,3.5,1.3,6.9,4.2,10.3
			c3.4,3.9,7.4,5.9,12.1,6c2.6,0.1,7.4-0.8,14.4-2.6c8.2-2.1,14.8-2.8,19.9-2C236.8,190.1,241,192.4,244.2,196.2z"/>
	</g>
	<g class="st2">
		<path class="st3" d="M281.9,154c0.6,1,0.4,1.7-0.4,2.2c-0.9,0.5-1.8,0.2-2.6-1c-1.8-2.6-3.8-4.5-5.8-5.7
			c-2.8-1.6-6.5-1.1-11.2,1.7c-0.7,0.4-1.7,1.1-3.2,2l24.8,41.8c0.8,1.3,2.2,1.4,4.3,0.3c2.1-1.1,3.2-1.4,3.5-1
			c0.3,0.5-0.2,1.1-1.3,1.8l-0.7,0.4c-0.6,0.4-1.6,0.9-2.9,1.7s-2.3,1.3-2.8,1.7c-0.1,0.1-0.9,0.6-2.4,1.4c-1.5,0.9-3.3,2-5.6,3.3
			l-2.5,1.5c-1.4,0.8-2.2,1-2.5,0.5s0.7-1.4,2.9-2.9c0.8-0.5,1.3-0.9,1.5-1.2c0.5-0.5,0.6-1,0.3-1.7c-0.3-0.6-1.3-2.4-3-5.3
			l-22.2-37.4c-5.5,3.1-8.6,5.8-9.6,7.9c-0.9,2.1-0.4,5.5,1.6,10.2c0.7,1.7,0.7,2.8,0.1,3.2s-1.4-0.2-2.3-1.8c-1.2-2-3.2-6.1-6-12.2
			l24.2-14.4c2.2-1.3,6.5-3.9,13-7.9c0.6-0.3,1.2-0.9,2-1.6l1.4,2.1l2.5,3.5l2.8,4.1l1.3,1.7C281.5,153.4,281.8,153.8,281.9,154z"/>
	</g>
	<g class="st2">
		<path class="st3" d="M332.7,119.3c0.2,0.5-0.2,0.9-1.2,1.4c-2.6,1.2-4.1,2.3-4.6,3.2s-1.1,4.5-1.8,10.8c-0.6,5.7-1.3,11-2.2,15.9
			c-0.4,2-0.5,3.4-0.4,4.2c0.1,0.7,0.6,2.2,1.3,4.3l5.3,14.2c0.6,1.5,1.1,2.3,1.7,2.4c0.6,0.1,2.2-0.3,4.9-1.1
			c1.4-0.4,2.2-0.4,2.4,0.1c0.2,0.5-0.2,1-1.3,1.4l-0.7,0.3l-2.4,0.9l-3,1.1c-0.6,0.2-1.7,0.6-3.3,1.2c-1.7,0.6-2.8,1-3.3,1.2
			c0.1,0-0.5,0.2-1.8,0.7s-3.1,1.2-5.7,2.1l-1.1,0.4c-1,0.4-1.6,0.3-1.8-0.2c-0.2-0.6,0.8-1.4,3-2.3c2.2-0.9,3.4-1.6,3.6-2.1
			s-0.1-1.9-1-4.2l-5.7-15.2c-0.8-0.7-2-1.8-3.5-3.2l-13.1-11c-1.9-1.7-3.5-3.1-4.7-4.1s-2.5-2.2-4-3.5c-1-0.5-3-0.2-6.2,0.9
			c-1,0.4-1.6,0.3-1.8-0.2c-0.2-0.6,0.2-1.1,1.1-1.5c-0.1,0,0.6-0.2,2.2-0.8c1.5-0.6,3.1-1.2,4.8-1.8l3.5-1.3l10.2-3.8
			c0.4-0.1,0.8-0.3,1.3-0.5c1.1-0.4,1.8-0.3,2.1,0.3c0.2,0.5-0.7,1.2-2.7,1.9c-3.1,1.1-4.4,2.2-4,3.2c0.5,1.2,7.3,7.2,20.5,17.9
			c2.4-17.4,3.4-26.5,3.2-27.2c-0.2-0.6-1-0.7-2.3-0.3l-2.1,0.8l-1,0.4c-1.3,0.5-2.1,0.4-2.3-0.2c-0.2-0.5,0.3-1,1.6-1.5l4.5-1.7
			l2.7-1C329.4,119.2,332.4,118.5,332.7,119.3z"/>
	</g>
	<g class="st2">
		<path class="st3" d="M393.5,152.6c0.8,4.4,1.4,8.2,1.8,11.2c-0.5,0.2-1,0.3-1.8,0.4c-0.1,0-0.7,0.1-1.9,0.2
			c-1.2,0.1-2.7,0.3-4.5,0.6l-5.6,1l-20.4,3.5l-9.8,1.8c-1,0.2-1.6,0-1.7-0.5c-0.1-0.4,1.4-1.1,4.5-1.9c0.9-0.2,1.4-0.5,1.5-0.9
			s0.1-1.2-0.2-2.7l-7.4-39.9c-0.8-4.5-1.6-6.7-2.4-6.8c-0.3-0.1-1.1-0.1-2.1,0.1c-1.1,0.2-1.8,0.3-2.1,0.3
			c-0.9,0.2-1.4-0.1-1.5-0.7s0.4-0.9,1.4-1.1l16.5-3c0.9-0.2,1.8-0.3,2.8-0.5c1.5-0.3,2.3-0.1,2.5,0.6c0.1,0.4-1.2,0.9-3.8,1.5
			c-1.3,0.3-2,0.7-2.1,1.3c-0.2,0.5,0,2.3,0.6,5.2l8.2,44.2c3.2-0.5,5.5-0.9,6.9-1.1c8.5-1.6,13.7-3.4,15.5-5.4
			c1.5-1.7,2.1-4.7,1.7-9.2c-0.2-1.9,0.1-3,0.8-3.1C392,147.4,392.8,149.1,393.5,152.6z"/>
	</g>
	<g class="st2">
		<path class="st3" d="M441.6,149.6c0,0.1-0.1,0.6-0.2,1.5s-0.2,1.8-0.1,2.5l0.1,7c0,0.7,0.1,1.5,0.4,2.4h-20.2l-23.1,0.7
			c-1.7,0-2.6-0.3-2.6-0.9c0-0.7,0.5-1.1,1.4-1.1c2.6,0,4.1-0.2,4.5-0.6c0.4-0.4,0.6-1.7,0.6-3.9l-0.7-41.6
			c-0.1-3.3-0.4-5.1-0.9-5.2c-0.6-0.2-2-0.3-4.2-0.2c-1,0-1.5-0.3-1.5-0.8c0-0.6,0.5-1,1.6-1h2.9c0.8,0,1.6,0,2.4,0h1.3h3
			c0.4,0,2.4,0,6-0.1c3.7-0.1,8.1-0.1,13.3-0.2l7.1-0.1c2.1,0,3.8-0.1,5.2-0.1v0.8l0.1,1.8c0.2,1.2,0.6,4.8,1.1,10.7
			c0.1,0.4,0.1,0.9,0.1,1.4c0,1-0.3,1.6-0.8,1.6c-0.7,0-1.3-0.8-1.6-2.4c-1.2-6.1-3.4-9.7-6.6-10.7c-1.8-0.5-6-0.8-12.5-0.6
			l-6.1,0.1l0.4,22.6h2.9c5.1-0.1,8.3-0.6,9.5-1.4c1.2-0.9,1.9-3.2,2.3-7c0.2-2.3,0.7-3.4,1.4-3.4c0.8,0,1.2,0.8,1.2,2.4
			c0,1,0,2.5-0.1,4.5s-0.1,3.6-0.1,4.6c0.1,5.2,0.2,8.8,0.4,10.8c0.1,0.6,0.1,1.2,0.1,1.6c0,1.3-0.4,1.9-1.2,2c-0.7,0-1.2-1-1.5-3
			c-0.5-4.3-1.4-6.9-2.5-7.8c-1.1-0.8-4.3-1.2-9.4-1.1h-3l0.4,26.1c11.8-0.3,18.7-0.7,20.8-1.3c3.2-0.9,5-4.8,5.5-11.7
			c0.1-1.2,0.5-1.8,1.3-1.8C441.2,146.3,441.6,147.4,441.6,149.6z"/>
	</g>
	<g class="st2">
		<path class="st3" d="M504.4,172.4c-0.1,0.6-0.9,0.8-2.3,0.6c0.3,0.1-0.1,0-1.2-0.2c-1.1-0.2-2.9-0.5-5.4-1l-4.2-0.8
			c-1.2-0.2-2.7-0.5-4.6-0.8s-3.7-0.7-5.2-0.9l-0.6-0.1c-1.4-0.3-2.1-0.7-2-1.2c0.1-0.3,0.3-0.5,0.6-0.5c0.4,0,1.7,0.2,4,0.5
			c1.7,0.2,2.7,0.2,3-0.2c0.3-0.3,0.8-1.8,1.2-4.4l7-38.4c-2.1,3.7-5.6,9.8-10.5,18.4c-2.8,5.1-6.4,11.8-10.7,19.9
			c-1.2,2.3-2.1,3.4-2.6,3.3c-0.6-0.1-1.1-1.3-1.4-3.6c-0.8-5.8-3.7-20.3-8.7-43.6l-7.4,40.8c-0.2,1,0.1,1.7,0.8,2.1
			c1.1,0.3,2.5,0.6,4.3,0.9c1,0.2,1.5,0.6,1.4,1.1c-0.1,0.6-1,0.8-2.6,0.5l-1.7-0.3c-0.7-0.1-1.5-0.3-2.5-0.5l-6.8-1.2
			c-0.7-0.1-1.6-0.3-2.6-0.5c-1.2-0.2-1.7-0.6-1.6-1.3c0.1-0.6,1.4-0.6,4-0.3c1.8,0.2,2.8,0.2,3.2-0.1c0.3-0.3,0.7-1.6,1.1-3.8
			l7.3-40.4c0.5-2.7,0.5-4.3,0.1-4.9s-2.1-1.2-5-1.8c-1-0.2-1.5-0.6-1.4-1.2c0.1-0.5,0.8-0.6,2.2-0.5c1.4,0.2,6.1,1,14.3,2.5
			l0.2,1.4c0.2,0.9,0.5,2.3,0.9,4l1.6,7.7c0.4,2.1,1.2,5.7,2.2,10.7l3.5,16.7c1.9-3.6,3.3-6.2,4.3-7.9l15.6-27.4l9,1.6l5.2,0.9
			c2.1,0.3,3,0.8,2.9,1.6c-0.1,0.6-0.9,0.8-2.4,0.6c-2.1-0.3-3.3-0.4-3.7-0.4c-1.2,0.2-1.9,1-2.1,2.3l-7.6,42
			c-0.6,3.2-0.6,4.9-0.1,5.3c0.5,0.3,2.3,0.8,5.4,1.3C504,171.3,504.5,171.7,504.4,172.4z"/>
	</g>
	<g class="st2">
		<path class="st3" d="M554.3,193.4c-0.2,0.4-1,0.4-2.5-0.2l-0.8-0.3l-7-2.8l-3.1-1.3c-1.3-0.5-3-1.2-5.3-2.1l-3.4-1.3l-2-0.8
			l-0.6-0.2c-1.3-0.5-1.9-1.1-1.7-1.7c0.2-0.6,1.7-0.4,4.4,0.6c3.2,1.2,5,1.5,5.3,0.8c0.1-0.1,0.1-0.9,0.2-2.4
			c0.1-0.7,0.2-3.5,0.4-8.5l0.2-4.3l-16.1-6.4c-6.2,6.5-9.5,10.3-9.9,11.5c-0.3,0.7,0,1.2,0.9,1.7l1.4,0.7l1.7,0.7l0.9,0.7
			c0.9,0.4,1.3,0.8,1.1,1.2c-0.2,0.5-1.1,0.5-2.7-0.2c-0.2-0.1-1.5-0.7-3.9-1.8s-4.5-2-6.4-2.7l-1-0.4l-1.1-0.2l-1.3-0.3l-0.2-0.1
			c-1.2-0.5-1.7-0.9-1.5-1.4s0.8-0.6,1.8-0.3c1.4,0.5,2.3,0.7,2.8,0.9c1.4,0.3,2.3,0.3,2.9,0c0.5,0,4.1-3.6,10.6-10.6
			c2.6-2.9,5.1-5.5,7.5-8c0.9-0.9,1.5-1.5,1.8-2c0.4-0.5,1-1.1,1.8-2c2.5-2.6,6.2-6.5,11-11.8l3.6-4l1.6-1.7c0.9-0.9,1.6-1.3,2-1.1
			c0.2,0.1,0.3,1.3,0.2,3.7c0.1,6.4,0.1,23.1,0.1,50.3c0,2.7,0.3,4.3,1.1,4.7c0.2,0.2,1.3,0.8,3.5,1.8
			C554,192.2,554.6,192.8,554.3,193.4z M538.6,166.7l0.4-22.1c-3.6,3.8-8.7,9.2-15.2,16.2L538.6,166.7z"/>
	</g>
	<g class="st2">
		<path class="st3" d="M623.7,174.9c-0.3,0.5-1.2,0.2-2.7-0.7c-0.2-0.1-0.7-0.4-1.4-0.9l-1.1-0.7c-0.6-0.4-1.1-0.5-1.3-0.3
			c-0.3,0.2-0.9,1.1-1.9,2.7l-23.9,37.7c-1.6,2.5-2.5,3.9-2.8,4.2c-0.3,0.4-0.8,0.4-1.3,0c-0.8-0.5-1.4-4.9-1.8-13.2
			c0-1.1-0.1-2.5-0.3-4.5c0-0.3-0.1-1-0.1-2.2c-0.5-6.7-1.3-19.1-2.3-37.2l-20.5,32.4c-1.6,2.5-2.1,4.1-1.5,4.7
			c0.6,0.6,1.9,1.5,3.8,2.7l0.4,0.3c0.8,0.5,1.1,1,0.8,1.4c-0.3,0.5-1.2,0.3-2.7-0.7c-0.3-0.2-1.4-1-3.2-2.3c-1-0.7-1.9-1.3-2.7-1.9
			c-0.7-0.4-1.4-0.8-2.1-1.2c-1.4-0.7-2.8-1.5-4.3-2.5c-1.1-0.7-1.5-1.3-1.2-1.8c0.3-0.4,1.1-0.3,2.4,0.6l0.9,0.6l1.4,0.7
			c1.7,0.9,2.8,1.1,3.1,0.7c0.2-0.2,0.9-1.2,2-2.9l17.9-28.3c3.3-5.1,4.9-8.4,5-9.8c0.1-1.9-1.1-3.6-3.5-5.1c-1.7-1.1-2.4-1.9-2-2.5
			c0.3-0.4,0.9-0.4,1.8,0.2l0.4,0.3l5.6,3.6c0.3,0.2,0.7,0.5,1.3,0.8c0.7,0.4,1.3,0.8,1.8,1.2l3.8,2.4l3.1,48.5l18-28.4
			c1.1-1.7,1.6-2.7,1.7-3.1c0-0.4-0.4-0.8-1.4-1.4c-0.9-0.6-1.6-1-2.1-1.4l-0.6-0.4c-1.3-0.8-1.8-1.5-1.5-2c0.2-0.3,0.6-0.3,1.3,0
			s3,1.8,7,4.3c3.7,2.4,5.9,3.8,6.5,4.2C623.8,174.2,624,174.6,623.7,174.9z"/>
	</g>
	<g class="st2">
		<path class="st3" d="M671.3,218.2c-0.4,0.4-1.2,0-2.5-1.2c-0.2-0.2-0.6-0.6-1.2-1.2l-1-0.9c-0.5-0.5-1-0.7-1.3-0.5
			s-1.1,0.9-2.4,2.3l-30.8,32.6c-2,2.1-3.2,3.3-3.6,3.6c-0.4,0.3-0.8,0.2-1.3-0.2c-0.6-0.6-0.4-5.1,0.7-13.3c0.2-1,0.4-2.5,0.6-4.5
			c0-0.3,0.1-1,0.3-2.2c0.7-6.7,2.4-19.1,4.8-37.1l-26.5,28c-2.1,2.2-2.9,3.6-2.3,4.3c0.5,0.7,1.6,1.8,3.2,3.4l0.4,0.3
			c0.7,0.7,0.9,1.2,0.5,1.6c-0.4,0.4-1.3,0-2.6-1.2c-0.2-0.2-1.2-1.2-2.7-2.9c-0.8-0.9-1.6-1.7-2.3-2.3c-0.6-0.6-1.2-1.1-1.8-1.6
			c-1.2-0.9-2.5-2-3.8-3.2c-0.9-0.9-1.2-1.6-0.8-2s1.1,0,2.2,1l0.8,0.8l1.2,1c1.5,1.2,2.5,1.6,3,1.3c0.3-0.2,1.1-1,2.5-2.5
			l23.1-24.5c4.2-4.4,6.5-7.4,6.8-8.8c0.4-1.9-0.4-3.8-2.5-5.7c-1.5-1.4-2-2.3-1.5-2.8c0.4-0.4,0.9-0.2,1.7,0.5l0.4,0.3l4.9,4.6
			c0.2,0.2,0.6,0.6,1.1,1.1c0.6,0.6,1.1,1.1,1.6,1.5l3.3,3.1l-6.3,48.4l23.2-24.5c1.4-1.5,2.1-2.4,2.2-2.7c0.1-0.3-0.3-0.9-1.1-1.7
			c-0.8-0.7-1.4-1.3-1.9-1.8l-0.5-0.5c-1.1-1.1-1.5-1.8-1.1-2.2c0.3-0.3,0.7-0.2,1.3,0.3s2.6,2.3,6,5.6c3.2,3.1,5.1,4.9,5.6,5.4
			C671.5,217.5,671.6,217.9,671.3,218.2z"/>
	</g>
	<g class="st2">
		<path class="st3" d="M163.1,583.9c-0.1,0.1-0.3-0.1-0.6-0.6l-0.1-0.2l-1.3-2.2l-0.6-1c-0.2-0.4-0.6-0.9-1-1.6l-0.6-1l-0.4-0.6
			l-0.1-0.2c-0.2-0.4-0.3-0.7-0.1-0.8s0.5,0.2,1.1,1.1c0.6,1,1,1.4,1.2,1.3c0,0,0.2-0.2,0.5-0.6c0.2-0.2,0.8-0.9,1.8-2.2l0.9-1.1
			l-2.9-5c-2.9,0.5-4.6,0.8-5,1c-0.2,0.1-0.2,0.3-0.1,0.6l0.2,0.5l0.3,0.5l0.1,0.4c0.2,0.3,0.2,0.5,0,0.5c-0.2,0.1-0.4-0.1-0.7-0.6
			c0-0.1-0.3-0.5-0.7-1.3c-0.4-0.8-0.8-1.4-1.1-2l-0.2-0.3l-0.2-0.3l-0.3-0.4v-0.1c-0.2-0.4-0.3-0.6-0.1-0.7s0.3,0,0.5,0.3
			c0.3,0.4,0.5,0.7,0.6,0.8c0.3,0.4,0.6,0.5,0.8,0.6s1.8-0.1,5-0.7c1.3-0.2,2.5-0.4,3.6-0.6c0.4-0.1,0.7-0.1,0.9-0.2
			c0.2,0,0.5-0.1,0.9-0.2c1.2-0.2,3-0.5,5.3-0.9l1.8-0.3l0.8-0.1c0.4-0.1,0.7,0,0.8,0.1c0,0.1-0.2,0.4-0.7,1
			c-1.3,1.7-4.7,6.1-10.2,13.3c-0.6,0.7-0.8,1.2-0.7,1.5c0,0.1,0.2,0.5,0.6,1.2C163.2,583.5,163.3,583.8,163.1,583.9z M164.4,573.6
			l4.6-5.7c-1.7,0.3-4.2,0.7-7.3,1.2L164.4,573.6z"/>
	</g>
	<g class="st2">
		<path class="st3" d="M175.4,601.7c-0.2,0.1-0.4,0-0.7-0.4c0.1,0.1,0,0-0.2-0.3c-0.2-0.3-0.6-0.8-1-1.5l-0.8-1.2
			c-0.2-0.3-0.5-0.8-0.9-1.3s-0.7-1-1-1.4l-0.1-0.2c-0.3-0.4-0.3-0.6-0.2-0.8c0.1-0.1,0.2-0.1,0.3,0s0.4,0.4,0.8,1.1
			c0.3,0.4,0.6,0.7,0.8,0.7s0.6-0.2,1.3-0.7l10.6-7.4c-1.4,0.4-3.6,1-6.8,1.9c-1.9,0.5-4.3,1.3-7.2,2.2c-0.8,0.3-1.3,0.3-1.4,0.2
			c-0.1-0.2,0-0.6,0.5-1.2c1.2-1.6,3.9-5.7,8.2-12.3l-11.3,7.9c-0.3,0.2-0.4,0.4-0.3,0.7c0.2,0.3,0.5,0.7,0.8,1.2
			c0.2,0.3,0.2,0.5,0.1,0.6c-0.2,0.1-0.4,0-0.7-0.5l-0.3-0.5c-0.1-0.2-0.3-0.4-0.5-0.7l-1.3-1.9c-0.1-0.2-0.3-0.4-0.5-0.7
			c-0.2-0.3-0.3-0.6-0.1-0.7c0.2-0.1,0.5,0.2,1,0.9c0.4,0.5,0.6,0.7,0.8,0.7s0.5-0.2,1.2-0.6l11.2-7.8c0.7-0.5,1.1-0.9,1.2-1.1
			c0-0.2-0.2-0.8-0.8-1.6c-0.2-0.3-0.2-0.5,0-0.6c0.1-0.1,0.3,0,0.6,0.4s1.2,1.7,2.8,3.9l-0.3,0.4c-0.2,0.3-0.4,0.7-0.7,1.1
			l-1.6,2.2c-0.4,0.6-1.1,1.6-2,3l-3.1,4.7c1.3-0.4,2.2-0.7,2.9-0.9l10.1-2.8l1.7,2.5l1,1.4c0.4,0.6,0.5,0.9,0.3,1s-0.4,0-0.7-0.4
			c-0.4-0.6-0.7-0.9-0.8-1c-0.3-0.2-0.7-0.2-1,0l-11.6,8.1c-0.9,0.6-1.3,1-1.3,1.2c0,0.2,0.4,0.7,1,1.6
			C175.6,601.4,175.6,601.6,175.4,601.7z"/>
	</g>
	<g class="st2">
		<path class="st3" d="M188.1,618c-0.1,0.1-0.4-0.1-0.7-0.5l-0.2-0.2l-1.6-2l-0.7-0.9c-0.3-0.4-0.7-0.9-1.2-1.5l-0.8-0.9l-0.5-0.6
			l-0.1-0.2c-0.3-0.4-0.4-0.6-0.2-0.8c0.2-0.1,0.6,0.2,1.2,0.9c0.7,0.9,1.2,1.3,1.4,1.1c0,0,0.2-0.3,0.4-0.7c0.1-0.2,0.6-1,1.5-2.4
			l0.8-1.2l-3.6-4.5c-2.9,0.9-4.4,1.4-4.8,1.7c-0.2,0.2-0.2,0.4,0,0.6l0.3,0.4l0.4,0.5l0.1,0.4c0.2,0.3,0.2,0.4,0.1,0.5
			c-0.1,0.1-0.4,0-0.7-0.5c-0.1-0.1-0.3-0.4-0.8-1.2c-0.5-0.7-1-1.3-1.4-1.9l-0.2-0.3l-0.3-0.2l-0.3-0.3l-0.1-0.1
			c-0.3-0.3-0.3-0.6-0.2-0.7s0.3,0,0.6,0.2c0.3,0.4,0.5,0.6,0.7,0.7c0.3,0.3,0.6,0.5,0.8,0.5c0.2,0.1,1.8-0.4,4.8-1.3
			c1.2-0.4,2.4-0.8,3.5-1.1c0.4-0.1,0.7-0.2,0.9-0.3s0.5-0.2,0.9-0.3c1.1-0.3,2.9-0.9,5.1-1.6l1.7-0.6l0.7-0.2
			c0.4-0.1,0.7-0.1,0.8,0c0,0.1-0.1,0.4-0.6,1.1c-1,1.9-3.8,6.7-8.3,14.6c-0.5,0.8-0.6,1.3-0.5,1.6c0,0.1,0.3,0.4,0.7,1.1
			C188.2,617.6,188.3,617.8,188.1,618z M187.9,607.6l3.8-6.3c-1.7,0.5-4,1.2-7.1,2.2L187.9,607.6z"/>
	</g>
	<g class="st2">
		<path class="st3" d="M205.1,628.6c-0.1,0.1-0.3,0-0.7-0.4l-0.9-1c-0.1-0.1-0.3-0.1-0.5,0s-0.6,0.4-1.1,0.9l-1.2,1.1
			c-2.3-0.3-4.2-1.4-5.7-3.1c-2-2.2-3-4.5-2.9-6.9s1.1-4.6,3.2-6.5c2.1-2,4.4-2.9,6.9-2.8c2.5,0.1,4.6,1.1,6.5,3.2
			c1,1.1,1.7,2.5,2.1,4.4c0,0.2,0.1,0.3,0.2,0.3c0.1,0.2,0.4,0.2,0.7,0c0.5-0.2,0.8-0.2,0.9-0.1c0.1,0.2,0.1,0.3,0,0.5
			c0,0-0.1,0.1-0.6,0.4c-0.6,0.5-1.8,1.5-3.5,3c-0.5,0.4-0.8,0.5-1,0.3c-0.2-0.2-0.1-0.4,0.1-0.6c1.3-1.2,2-2.5,2.1-3.9
			s-0.3-2.6-1.3-3.7c-1.2-1.3-2.8-1.8-4.6-1.5c-1.8,0.3-3.8,1.4-5.9,3.3c-2,1.8-3.2,3.6-3.7,5.4s-0.1,3.4,1.1,4.7
			c1.1,1.2,2.1,1.6,3.1,1.2c0.3-0.1,0.8-0.5,1.4-1c0.7-0.6,1.1-1.1,1.1-1.2c0-0.2-0.3-0.6-0.9-1.2l-0.2-0.2
			c-0.1-0.1-0.2-0.2-0.2-0.3c-0.1-0.2-0.2-0.3,0-0.4c0.2-0.2,0.5,0,0.9,0.5l0.7,0.8c0.2,0.2,0.4,0.4,0.6,0.7
			c0.3,0.3,0.4,0.4,0.4,0.4c1.3,1.4,2,2.2,2.2,2.4l0.5,0.5C205.2,628.2,205.2,628.4,205.1,628.6z"/>
	</g>
	<g class="st2">
		<path class="st3" d="M216,640.7c0,0-0.2,0.1-0.4,0.3c-0.2,0.2-0.5,0.4-0.6,0.6l-1.6,1.7c-0.2,0.2-0.3,0.4-0.5,0.7l-4.7-4.7
			l-5.6-5.2c-0.4-0.4-0.5-0.7-0.4-0.8c0.2-0.2,0.4-0.2,0.6,0.1c0.6,0.6,1,0.9,1.2,0.9s0.5-0.2,1.1-0.8l9.5-10c0.8-0.8,1.1-1.3,1-1.5
			c-0.1-0.2-0.4-0.5-0.9-1c-0.2-0.2-0.3-0.4-0.2-0.5c0.1-0.2,0.3-0.1,0.6,0.1l0.7,0.7c0.2,0.2,0.4,0.4,0.6,0.6l0.3,0.3l0.7,0.7
			c0.1,0.1,0.6,0.6,1.4,1.4c0.9,0.9,1.9,1.9,3.2,3.1l1.7,1.6c0.5,0.5,0.9,0.9,1.2,1.2l-0.2,0.2l-0.4,0.5c-0.2,0.3-1,1.3-2.2,2.8
			c-0.1,0.1-0.2,0.2-0.3,0.4c-0.2,0.2-0.4,0.3-0.6,0.2c-0.2-0.2-0.1-0.5,0.2-0.9c1.1-1.7,1.4-3.1,0.9-4c-0.3-0.5-1.2-1.6-2.8-3.1
			l-1.5-1.4l-5.2,5.4l0.7,0.7c1.2,1.2,2.1,1.8,2.6,1.9c0.5,0.1,1.2-0.3,2.2-1.1c0.6-0.5,1-0.6,1.1-0.5c0.2,0.2,0.1,0.5-0.3,0.9
			c-0.2,0.2-0.6,0.6-1.1,1c-0.5,0.5-0.9,0.8-1.1,1.1c-1.2,1.3-2,2.1-2.4,2.6c-0.1,0.2-0.2,0.3-0.3,0.4c-0.3,0.3-0.5,0.4-0.7,0.2
			c-0.2-0.2-0.1-0.5,0.4-1.1c0.9-1.2,1.3-2,1.2-2.4c-0.1-0.5-0.7-1.3-2-2.5l-0.7-0.7l-6,6.3c2.8,2.7,4.6,4.2,5.2,4.5
			c1,0.5,2.3,0,4-1.5c0.3-0.3,0.5-0.3,0.7-0.1C216.7,639.8,216.5,640.2,216,640.7z"/>
	</g>
	<g class="st2">
		<path class="st3" d="M228.4,655.9c-0.6,0.7-1.4,0.5-2.5-0.5c-1.1-0.9-1.6-2.1-1.6-3.5c0-0.6,0.1-1.2,0.3-1.6
			c0.2-0.5,0.8-1.4,1.9-2.9c0.6-1,0.9-1.8,0.7-2.5c-0.2-0.7-0.8-1.6-1.9-2.6l-5.4,6.3c-0.3,0.2,0.1,0.8,1.2,1.7
			c0.2,0.2,0.3,0.4,0.1,0.5c-0.1,0.1-0.3,0.1-0.6-0.2c-0.2-0.2-0.4-0.4-0.6-0.6l-1.1-0.9c-0.4-0.4-1-0.8-1.6-1.4
			c-0.6-0.5-1-0.8-1-0.9l-0.6-0.5c-0.6-0.5-0.8-0.8-0.7-0.9c0.1-0.2,0.3-0.1,0.5,0c0.1,0.1,0.2,0.1,0.3,0.3l0.1,0.1
			c0.7,0.6,1.2,0.7,1.4,0.5l10.4-12.1c0.2-0.2,0.3-0.4,0.2-0.6c-0.1-0.2-0.3-0.5-0.8-0.9s-0.7-0.7-0.5-0.9c0.1-0.1,0.3-0.1,0.6,0.2
			l0.2,0.2c0.3,0.3,1.3,1.1,2.9,2.5c0.7,0.6,1.2,1,1.7,1.4c0.4,0.4,0.8,0.7,1,0.9c1.4,1.2,2.2,2.4,2.6,3.7c0.3,1.3,0.1,2.4-0.7,3.3
			c-0.9,1-2,1.4-3.4,1.3c-1.4-0.1-3-0.8-4.6-2.1c1.6,1.7,2.4,3.1,2.4,4.4s-0.6,2.9-2,4.9c-1,1.4-1.1,2.3-0.5,2.9
			c0.1,0.1,0.2,0.1,0.2,0c0,0,0-0.1,0.1-0.3c0-0.2,0.1-0.3,0.1-0.3c0.3-0.4,0.7-0.4,1.1,0C228.7,655,228.8,655.5,228.4,655.9z
			 M232,641.8c1.6-1.8,1.4-3.5-0.4-5.1c-0.5-0.4-0.8-0.6-1-0.6s-0.4,0.2-0.7,0.5l-4.3,5C228.2,643.8,230.3,643.9,232,641.8z"/>
	</g>
	<g class="st2">
		<path class="st3" d="M244,662.8c-0.7,1-1.7,1.5-2.9,1.6c-1.2,0.1-2.5-0.2-3.9-1c-0.8-0.5-2.5-1.7-5.1-3.6c-1.1-0.9-1.8-1.3-2-1.5
			H230l-0.5-0.3c-0.2-0.1-0.2-0.2-0.1-0.4c0.1-0.1,0.2-0.2,0.3-0.1c0.1,0,0.4,0.2,0.8,0.5c0.4,0.3,0.7,0.5,0.8,0.4s0.4-0.3,0.7-0.7
			l8.7-11.6c0.4-0.6,0.6-0.9,0.6-1.1c0-0.1-0.3-0.5-0.9-1c-0.4-0.4-0.6-0.6-0.5-0.7c0.1-0.2,0.4-0.1,0.9,0.3l0.5,0.4
			c0.2,0.2,0.9,0.7,1.9,1.5l1.5,1.2c1.5,1.1,2.4,1.9,2.7,2.2c0.5,0.4,0.9,0.9,1.2,1.4c1.1,1.7,1.2,3.3,0.1,4.7c-1.5,2-3.8,2-7.1,0.1
			v0.1c1.6,1.2,2.5,2.5,2.9,3.9C245.1,660.3,244.8,661.6,244,662.8z M241.3,660.4c1.7-2.3,1.3-4.4-1.3-6.3l-0.7-0.5l-4.8,6.5
			c-0.2,0.3-0.3,0.5-0.2,0.6s0.4,0.4,0.9,0.8C237.5,663.2,239.5,662.8,241.3,660.4z M245.9,652.9c1.1-1.4,1.4-2.5,1-3.4
			c-0.2-0.5-0.7-1-1.6-1.7c-0.4-0.3-0.6-0.5-0.8-0.6l-0.3-0.2l-4.5,6c1.2,0.8,2,1.3,2.6,1.5C243.7,654.8,244.9,654.3,245.9,652.9z"
			/>
	</g>
	<g class="st2">
		<path class="st3" d="M258.4,676.9c-0.5,0.7-1.3,0.7-2.6-0.2c-1.2-0.8-1.9-1.9-2.1-3.3c-0.1-0.6,0-1.2,0.1-1.7
			c0.2-0.5,0.6-1.5,1.5-3.1c0.5-1,0.7-1.9,0.4-2.6c-0.3-0.7-1-1.5-2.2-2.4l-4.6,7c-0.3,0.3,0.2,0.8,1.4,1.6c0.2,0.2,0.3,0.3,0.2,0.5
			c-0.1,0.2-0.3,0.1-0.6-0.1c-0.2-0.2-0.5-0.3-0.7-0.5l-1.2-0.8c-0.5-0.3-1.1-0.7-1.8-1.2c-0.7-0.4-1-0.7-1.1-0.7l-0.6-0.4
			c-0.6-0.4-0.9-0.7-0.8-0.8c0.1-0.2,0.3-0.2,0.5,0c0.1,0,0.2,0.1,0.3,0.2l0.1,0.1c0.8,0.5,1.3,0.6,1.5,0.3l8.8-13.4
			c0.2-0.2,0.2-0.5,0.1-0.6c-0.1-0.2-0.4-0.4-0.9-0.8c-0.5-0.3-0.7-0.6-0.6-0.8c0.1-0.2,0.3-0.1,0.6,0.1l0.2,0.2
			c0.4,0.2,1.4,0.9,3.2,2.1c0.7,0.5,1.4,0.9,1.8,1.2c0.4,0.3,0.8,0.6,1.1,0.7c1.5,1,2.5,2.1,3,3.3c0.5,1.2,0.4,2.3-0.2,3.3
			c-0.7,1.1-1.8,1.7-3.2,1.7s-3-0.4-4.9-1.5c1.8,1.4,2.7,2.8,2.9,4c0.2,1.3-0.3,3-1.4,5.1c-0.8,1.5-0.8,2.5-0.1,2.9
			c0.1,0.1,0.2,0.1,0.2,0c0,0,0-0.1,0.1-0.3c0-0.2,0.1-0.3,0.1-0.3c0.3-0.4,0.6-0.5,1.1-0.2C258.6,676,258.7,676.4,258.4,676.9z
			 M260.2,662.4c1.3-2,1-3.7-1-5c-0.5-0.3-0.9-0.5-1.1-0.5s-0.4,0.2-0.7,0.6l-3.6,5.5C256.6,664.9,258.8,664.7,260.2,662.4z"/>
	</g>
	<g class="st2">
		<path class="st3" d="M279.7,679.8c-1.3,2.3-3.1,3.8-5.4,4.5c-2.3,0.7-4.6,0.5-6.7-0.7c-2.3-1.3-3.7-3.1-4.4-5.6
			c-0.7-2.5-0.3-4.9,1-7.2c1.4-2.4,3.2-3.9,5.5-4.6c2.3-0.7,4.7-0.4,7,0.9c2.2,1.2,3.6,3.1,4.2,5.5C281.3,675,281,677.4,279.7,679.8
			z M276.3,678c1.5-2.7,2.2-5.1,2-7.3c-0.1-1.4-0.8-2.4-2.1-3.1c-1.7-1-3.5-0.7-5.3,0.7c-1.3,1-2.5,2.5-3.6,4.5
			c-1.4,2.4-2,4.5-1.9,6.3c0.1,1.8,0.9,3.2,2.4,4C270.6,684.7,273.5,683.1,276.3,678z"/>
	</g>
	<g class="st2">
		<path class="st3" d="M297.3,692.1c-0.1,0.1-0.3,0.1-0.8-0.1l-1.2-0.6c-0.1,0-0.3,0-0.4,0.2c-0.2,0.2-0.4,0.6-0.7,1.3l-0.7,1.5
			c-2.2,0.6-4.4,0.3-6.5-0.7c-2.7-1.3-4.4-3-5.3-5.3c-0.9-2.3-0.7-4.7,0.5-7.2c1.2-2.6,3-4.4,5.3-5.3s4.7-0.7,7.3,0.5
			c1.3,0.6,2.5,1.7,3.6,3.2c0.1,0.1,0.2,0.2,0.3,0.3c0.2,0.1,0.4,0,0.6-0.3c0.4-0.4,0.6-0.5,0.8-0.4s0.2,0.2,0.2,0.4
			c0,0-0.1,0.1-0.4,0.6c-0.4,0.7-1.1,2.1-2.1,4.1c-0.3,0.6-0.5,0.8-0.8,0.6c-0.2-0.1-0.3-0.3-0.1-0.6c0.7-1.6,0.9-3.1,0.5-4.4
			s-1.3-2.3-2.6-2.9c-1.6-0.8-3.2-0.6-4.9,0.4c-1.6,1-3,2.8-4.2,5.3c-1.1,2.4-1.6,4.6-1.3,6.4c0.3,1.8,1.2,3.2,2.8,3.9
			c1.5,0.7,2.6,0.7,3.3-0.1c0.3-0.3,0.6-0.7,0.9-1.4c0.4-0.9,0.6-1.4,0.5-1.5c-0.1-0.2-0.5-0.4-1.3-0.8l-0.3-0.1
			c-0.1-0.1-0.2-0.1-0.3-0.2c-0.2-0.1-0.3-0.2-0.2-0.4c0.1-0.2,0.4-0.2,1,0.1l0.9,0.4c0.2,0.1,0.5,0.2,0.8,0.4
			c0.3,0.2,0.5,0.2,0.5,0.3c1.7,0.8,2.7,1.3,2.9,1.4l0.7,0.3C297.2,691.6,297.4,691.8,297.3,692.1z"/>
	</g>
	<g class="st2">
		<path class="st3" d="M313.1,704.1c-0.1,0.2-0.3,0.1-0.8-0.1l-0.3-0.1l-2.3-0.9l-1-0.4c-0.4-0.2-1-0.4-1.8-0.7l-1.1-0.4l-0.7-0.3
			l-0.2-0.1c-0.4-0.2-0.6-0.4-0.6-0.6c0.1-0.2,0.6-0.1,1.5,0.2c1.1,0.4,1.7,0.5,1.8,0.3c0,0,0-0.3,0.1-0.8c0-0.2,0.1-1.2,0.1-2.8
			l0.1-1.4l-5.4-2.1c-2,2.2-3.2,3.4-3.3,3.8c-0.1,0.2,0,0.4,0.3,0.6l0.5,0.2l0.6,0.2l0.3,0.2c0.3,0.1,0.4,0.3,0.4,0.4
			c-0.1,0.2-0.4,0.2-0.9-0.1c-0.1,0-0.5-0.2-1.3-0.6s-1.5-0.7-2.1-0.9l-0.3-0.1l-0.4-0.1l-0.4-0.1h-0.1c-0.4-0.2-0.6-0.3-0.5-0.5
			c0.1-0.2,0.3-0.2,0.6-0.1c0.5,0.2,0.8,0.2,0.9,0.3c0.5,0.1,0.8,0.1,1,0c0.2,0,1.4-1.2,3.5-3.6c0.9-1,1.7-1.8,2.5-2.7
			c0.3-0.3,0.5-0.5,0.6-0.7c0.1-0.2,0.3-0.4,0.6-0.7c0.8-0.9,2.1-2.2,3.7-3.9l1.2-1.3l0.5-0.6c0.3-0.3,0.5-0.4,0.7-0.4
			c0.1,0,0.1,0.4,0.1,1.2c0,2.1,0,7.7,0.1,16.8c0,0.9,0.1,1.4,0.4,1.6c0.1,0.1,0.5,0.3,1.2,0.6C312.9,703.7,313.1,703.9,313.1,704.1
			z M307.8,695.1l0.1-7.4c-1.2,1.3-2.9,3.1-5.1,5.4L307.8,695.1z"/>
	</g>
	<g class="st2">
		<path class="st3" d="M334.5,701.4c-0.9,3-2.8,5-5.7,5.9c-2,0.7-4.4,0.6-7-0.2c0.1,0-0.2-0.1-0.9-0.3c-0.7-0.2-1.7-0.5-3.1-1
			l-0.8-0.3c0.1,0-0.2-0.1-0.7-0.2c-0.5-0.2-1-0.3-1.5-0.5l-0.3-0.1c-0.4-0.1-0.6-0.3-0.5-0.6c0.1-0.2,0.3-0.3,0.6-0.1l0.9,0.3
			c0.5,0.2,0.8,0.1,1-0.2c0.1-0.1,0.2-0.5,0.5-1.3l3.9-12.3c0.4-1.2,0.6-1.9,0.5-2c-0.1-0.2-0.5-0.4-1.3-0.7
			c-0.5-0.1-0.7-0.3-0.6-0.5c0.1-0.2,0.3-0.2,0.8-0.1c-0.1,0,0.1,0,0.3,0.1c0.3,0.1,0.8,0.2,1.4,0.4l2.6,0.8c3.4,1.1,5.7,2,7,2.9
			c1.5,1,2.6,2.4,3.2,4.3C335.2,697.6,335.2,699.5,334.5,701.4z M330.9,700.1c1.7-5.3,0.4-8.6-3.9-10c-1.3-0.4-2-0.6-2.2-0.5
			s-0.4,0.5-0.7,1.3l-4.3,13.6c-0.1,0.5-0.1,0.8,0.1,0.9c0.2,0.2,0.7,0.4,1.6,0.7C326,707.6,329.2,705.6,330.9,700.1z"/>
	</g>
	<g class="st2">
		<path class="st3" d="M350.7,710.2c0,0-0.1,0.2-0.2,0.5c-0.1,0.3-0.2,0.6-0.3,0.8l-0.5,2.3c-0.1,0.2-0.1,0.5-0.1,0.8l-6.5-1.7
			l-7.5-1.7c-0.6-0.1-0.8-0.3-0.8-0.5c0.1-0.2,0.2-0.3,0.6-0.2c0.8,0.2,1.3,0.3,1.5,0.2s0.3-0.5,0.5-1.2l3.2-13.5
			c0.3-1.1,0.3-1.7,0.1-1.8c-0.2-0.1-0.6-0.2-1.3-0.4c-0.3-0.1-0.4-0.2-0.4-0.4c0-0.2,0.2-0.3,0.6-0.2l0.9,0.2
			c0.3,0.1,0.5,0.1,0.8,0.2l0.4,0.1l1,0.2c0.1,0,0.8,0.2,2,0.5c1.2,0.3,2.6,0.6,4.3,1l2.3,0.5c0.7,0.2,1.2,0.3,1.7,0.4l-0.1,0.3
			l-0.1,0.6c0,0.4-0.2,1.6-0.5,3.5c0,0.1,0,0.3-0.1,0.5c-0.1,0.3-0.2,0.5-0.4,0.4c-0.2-0.1-0.3-0.4-0.3-0.9c0.1-2.1-0.3-3.4-1.2-4
			c-0.5-0.3-1.9-0.7-4-1.2l-2-0.5l-1.7,7.3l0.9,0.2c1.7,0.4,2.7,0.5,3.2,0.3c0.5-0.2,0.9-0.9,1.3-2.1c0.3-0.7,0.5-1,0.7-1
			c0.3,0.1,0.3,0.4,0.2,0.9c-0.1,0.3-0.2,0.8-0.4,1.4c-0.2,0.6-0.3,1.1-0.4,1.5c-0.4,1.7-0.6,2.9-0.7,3.5c0,0.2-0.1,0.4-0.1,0.5
			c-0.1,0.4-0.3,0.6-0.5,0.5s-0.3-0.4-0.2-1.1c0.2-1.4,0.1-2.3-0.2-2.7c-0.3-0.4-1.3-0.7-3-1.1l-1-0.2l-2,8.5
			c3.8,0.9,6.1,1.3,6.8,1.3c1.1,0,2-1.1,2.7-3.3c0.1-0.4,0.3-0.5,0.6-0.5C350.8,709.1,350.9,709.5,350.7,710.2z"/>
	</g>
	<g class="st2">
		<path class="st3" d="M378.1,712.2c-0.3,2-1.3,3.7-3.1,4.8c-1.8,1.2-3.8,1.6-6.1,1.3c-2.5-0.4-4.5-1.3-6-2.9
			c-1.5-1.6-2.1-3.4-1.8-5.3c0.3-2.3,1.6-4,3.7-5.1c1.1-0.6,2.7-1,4.7-1.1v-0.2c-4.1-1.2-6-3.5-5.5-6.9c0.3-1.9,1.2-3.4,2.8-4.4
			c1.6-1,3.4-1.4,5.6-1.1s3.8,1.2,5,2.6c1.2,1.5,1.7,3.2,1.4,5.1c-0.4,3-2.7,4.7-6.9,5.2l-0.1,0.1c2,0.8,3.4,1.6,4.4,2.6
			C377.8,708.5,378.4,710.3,378.1,712.2z M374.5,711.6c0.3-2,0.1-3.6-0.6-4.9c-0.7-1.3-1.8-2-3.3-2.2c-1.4-0.2-2.6,0.3-3.8,1.5
			c-1.1,1.2-1.8,2.7-2.1,4.7c-0.3,1.9,0,3.4,0.8,4.7c0.8,1.3,2,2.1,3.5,2.3c1.4,0.2,2.6-0.2,3.6-1.3
			C373.6,715.2,374.2,713.7,374.5,711.6z M375.2,698.4c0.6-3.9-0.4-6-2.8-6.4c-1.2-0.2-2.2,0.2-3,1.2s-1.4,2.4-1.7,4.2
			c-0.5,3.8,0.5,5.9,3.1,6.2C373.1,704,374.6,702.2,375.2,698.4z"/>
	</g>
	<g class="st2">
		<path class="st3" d="M396.9,720.8c-0.2,2.9-1.7,5.2-4.4,6.8c-2.1,1.2-4.3,1.7-6.6,1.6c-1.6-0.1-2.9-0.6-3.9-1.5
			c-1.1-0.9-1.6-1.8-1.5-2.9c0-0.6,0.3-1.1,0.8-1.5s1-0.6,1.7-0.5c0.6,0,1,0.3,1.4,0.6c0.3,0.4,0.5,0.8,0.4,1.4c0,0.4-0.1,0.8-0.3,1
			c-0.2,0.2-0.6,0.5-1.4,0.9c-0.2,0.1-0.3,0.2-0.3,0.3c0,0.3,0.3,0.6,0.9,0.8c0.6,0.3,1.3,0.5,2.1,0.5c2,0.2,3.6-0.4,4.9-1.8
			c1.3-1.4,2.1-3.2,2.3-5.6c0.2-2.1-0.3-3.9-1.3-5.4s-2.4-2.3-4.1-2.4c-1.3-0.1-2.8,0.4-4.6,1.4l0.2-1.2c0-0.3,0.3-2.8,0.8-7.5
			c0.2-2,0.5-3.1,0.7-3.5c0.3-0.3,1.1-0.4,2.6-0.3c1.4,0.1,2.8,0.3,4.2,0.4c0.7,0.1,1.4,0.2,2.1,0.2c0.5,0,0.9,0,1.1-0.2
			c0.2-0.1,0.3-0.5,0.5-1.1c0.1-0.4,0.3-0.6,0.5-0.5c0.2,0,0.4,0.2,0.3,0.6c0,0.3-0.1,0.6-0.1,0.8l-0.1,1.2
			c-0.1,1.1-0.4,1.8-0.7,2.1c-0.4,0.4-1,0.5-1.9,0.5c-1.1-0.1-2.3-0.2-3.6-0.5l-1.9-0.2c-0.4,0-1.3-0.1-2.6-0.1v0.4l-0.3,1.6
			c-0.1,0.4-0.2,2.2-0.6,5.6c1.8-0.8,3.5-1.1,5.1-0.9c2.4,0.2,4.3,1.1,5.7,2.7C396.5,716.5,397.1,718.5,396.9,720.8z"/>
	</g>
	<g class="st2">
		<path class="st3" d="M418.2,712.8l-11.1,0.2v-2.1l11.1-0.2V712.8z"/>
	</g>
	<g class="st2">
		<path class="st3" d="M445.1,712c0.1,0.8,0.1,1.9-0.1,3.5s-0.1,2.8,0,3.5c-0.9,0.1-2.8,0.2-5.4,0.3c-1.4,0.1-2.3,0.1-2.9,0.2
			c-3.5,0.3-6.1,0.6-7.7,0.9h-0.3c-0.4,0-0.5-0.1-0.6-0.3c-0.1-0.2,1.6-1.4,4.9-3.4c1.9-1.2,3.4-2.7,4.5-4.4c1.1-1.7,1.6-3.4,1.4-5
			c-0.1-1.5-0.7-2.6-1.7-3.4c-1-0.8-2.2-1.2-3.6-1c-1.3,0.1-2.4,0.6-3.1,1.3c-0.8,0.8-1.1,1.5-1.1,2.1c0,0.3,0.1,0.4,0.2,0.5
			s0.6,0.1,1.5,0.3c0.9,0.1,1.3,0.5,1.4,1.2c0,0.5-0.1,0.9-0.4,1.3c-0.3,0.4-0.7,0.6-1.2,0.6c-0.7,0.1-1.3-0.2-1.8-0.7
			s-0.8-1.2-0.9-2c-0.1-1.5,0.4-2.8,1.7-3.9c1.3-1.1,2.9-1.8,4.8-2c2.2-0.2,4,0.3,5.5,1.4c1.5,1.1,2.2,2.5,2.4,4.1
			c0.2,2.2-1,4.3-3.5,6.4c-0.5,0.4-1.4,1-2.7,1.9c-1.3,0.9-2.2,1.4-2.6,1.6c-0.2,0.1-0.3,0.1-0.4,0.2c0,0.1,0.3,0.1,0.7,0.1
			c2.5-0.1,4.7-0.3,6.5-0.5c1.5-0.2,2.5-0.4,2.8-0.8c0.3-0.4,0.6-1.4,0.7-3c0-0.5,0.1-0.9,0.1-1c0.1-0.1,0.2-0.2,0.4-0.2
			C444.9,711.6,445.1,711.7,445.1,712z"/>
	</g>
	<g class="st2">
		<path class="st3" d="M464.4,716.9c0.4,2.3-0.3,4.5-1.9,6.4s-3.8,3.1-6.4,3.5c-1.7,0.3-3.2,0.1-4.5-0.6c-1.3-0.6-2.1-1.5-2.2-2.7
			c-0.1-0.6,0-1.1,0.4-1.5c0.3-0.4,0.8-0.7,1.5-0.8c1.3-0.2,2,0.3,2.2,1.5c0.1,0.6-0.2,1.3-0.8,2.1c-0.1,0.2-0.2,0.3-0.2,0.4
			c0,0.3,0.5,0.5,1.2,0.7c0.8,0.2,1.5,0.2,2.2,0.1c1.6-0.2,2.8-1,3.7-2.4c1.1-1.7,1.5-3.9,1.1-6.5c-0.3-2.1-1.3-3.7-2.8-4.7
			c-0.8-0.5-1.9-0.7-3.4-0.5c-0.9,0.1-1.4,0.1-1.4-0.2c0-0.2,0.3-0.4,1-0.6s1.4-0.5,2.1-1.1c0.7-0.5,1.2-1.1,1.5-1.6
			c0.6-1,0.7-2.3,0.5-3.8c-0.3-1.7-1.1-3-2.5-3.7c-0.8-0.4-1.7-0.5-2.9-0.3c-1.3,0.2-2.3,0.6-2.9,1.3c-0.5,0.5-0.7,1-0.7,1.4
			c0,0.3,0.4,0.4,1.1,0.4c1,0.1,1.6,0.5,1.8,1.4c0.1,0.5,0,0.9-0.3,1.3s-0.7,0.6-1.2,0.7c-0.6,0.1-1.2-0.1-1.7-0.5s-0.8-0.9-0.9-1.6
			c-0.2-1.4,0.2-2.6,1.3-3.6c1.1-1,2.6-1.7,4.5-2c2.2-0.3,4-0.1,5.5,0.7c1.5,0.8,2.3,2.1,2.6,3.7c0.2,1.7-0.2,3.1-1.3,4.5
			s-2.8,2.2-4.9,2.8v0.1c2.1-0.3,3.8-0.2,5.1,0.4C462.8,712.8,464.1,714.5,464.4,716.9z"/>
	</g>
	<g class="st2">
		<path class="st3" d="M485.4,702.8c0.6,2.7-0.1,5.2-2.1,7.6c-1.6,1.8-3.5,2.9-5.7,3.5c-2.6,0.6-5,0.3-7.3-1
			c-2.3-1.3-3.7-3.1-4.3-5.5c-0.4-1.6-0.3-3.1,0.2-4.7c0.5-1.6,1.4-3,2.6-4.1c1.5-1.4,3.3-2.3,5.2-2.8c1.2-0.3,2.4-0.3,3.8-0.1
			c1.3,0.2,2.5,0.6,3.5,1.3C483.5,698.1,484.8,700.1,485.4,702.8z M482.1,703.2c-0.6-2.4-1.6-4.2-3.1-5.4c-1.5-1.2-3.2-1.6-5.1-1.2
			c-1.8,0.4-3.1,1.6-3.8,3.4c-0.7,1.8-0.8,4-0.2,6.6c0.6,2.6,1.8,4.5,3.7,5.6c1.3,0.8,2.6,1.1,4,0.8c2.1-0.5,3.6-1.8,4.5-4
			C482.6,707.4,482.6,705.5,482.1,703.2z"/>
	</g>
	<g class="st2">
		<path class="st3" d="M507.7,695.9c0.9,2.7,0.3,5.2-1.6,7.7c-1.4,1.9-3.2,3.2-5.4,3.9c-2.6,0.8-5,0.7-7.4-0.4
			c-2.4-1.1-3.9-2.8-4.7-5.2c-0.5-1.5-0.5-3.1-0.1-4.8c0.4-1.6,1.2-3.1,2.3-4.3c1.4-1.5,3.1-2.6,5-3.2c1.2-0.4,2.4-0.5,3.8-0.4
			s2.6,0.4,3.6,1C505.3,691.4,506.8,693.3,507.7,695.9z M504.3,696.5c-0.8-2.4-1.9-4.1-3.5-5.2c-1.6-1.1-3.3-1.4-5.2-0.8
			c-1.8,0.6-2.9,1.8-3.5,3.7s-0.5,4.1,0.3,6.6c0.8,2.6,2.2,4.3,4.1,5.3c1.4,0.7,2.7,0.9,4,0.4c2.1-0.7,3.4-2.1,4.1-4.3
			C505.2,700.7,505.1,698.8,504.3,696.5z"/>
	</g>
	<g class="st2">
		<path class="st3" d="M538.7,691.8c0.1,0.1,0.1,0.3,0,0.3c-0.1,0.1-0.4,0.2-0.9,0.4l-0.7,0.3l-5.5,2.4c-0.4,0.2-0.7,0.2-0.8,0.1
			c-0.1-0.2,0.3-0.5,1.1-0.9c0.5-0.3,0.7-0.5,0.6-0.6c0-0.1-0.5-0.3-1.3-0.7c-0.8-0.3-3.7-1.6-8.8-3.9l2.9,6.7
			c0.3,0.6,0.5,0.9,0.7,0.9s0.7-0.1,1.5-0.4c0.3-0.1,0.5-0.1,0.5,0.1c0.1,0.2-0.1,0.3-0.4,0.5l-0.3,0.1c-0.2,0.1-1.4,0.6-3.6,1.5
			c-0.9,0.4-1.6,0.7-2.1,0.9l-0.3,0.1c-0.3,0.2-0.6,0.1-0.6-0.1c-0.1-0.2,0.2-0.5,0.9-0.8c0.5-0.2,0.7-0.4,0.8-0.6
			c0-0.2-0.2-0.7-0.6-1.6l-5.4-12.4c-0.3-0.7-0.5-1.1-0.5-1.1c-0.2-0.2-0.6-0.1-1.2,0.2c-0.6,0.3-1,0.3-1.1,0.1
			c-0.1-0.2,0.1-0.3,0.4-0.5c0,0,0.2-0.1,0.4-0.2c0.2-0.1,0.4-0.1,0.6-0.2l2.4-1.1c0.1-0.1,0.7-0.3,1.6-0.6l1.3-0.6
			c0.3-0.2,0.6-0.1,0.7,0.1c0.1,0.2-0.3,0.5-1.1,0.8c-0.4,0.2-0.6,0.3-0.7,0.4c-0.1,0.1,0,0.3,0.1,0.7l2.7,6.1
			c2.8-6.3,4.1-9.5,4-9.7c-0.1-0.1-0.6,0-1.6,0.5c-0.3,0.1-0.5,0.1-0.6-0.1c-0.1-0.1,0-0.3,0.1-0.4c0.2-0.1,0.8-0.4,1.8-0.8
			c1.9-0.8,3-1.3,3.4-1.4c0.3-0.1,0.5-0.1,0.6,0.1s-0.1,0.4-0.5,0.6l-1,0.5c-0.4,0.1-0.7,0.5-1,1.2c-0.2,0.4-0.5,1.1-0.9,2
			c-0.6,1.4-1.5,3.4-2.7,6.2c0.5,0.2,2.2,0.9,5.1,2.1l6.3,2.5c1,0.4,1.6,0.6,1.9,0.6c0.3,0,0.7,0,1.2-0.3
			C538.5,691.6,538.7,691.6,538.7,691.8z"/>
	</g>
	<g class="st2">
		<path class="st3" d="M552,674.9c1.2,2.3,1.5,4.6,0.8,7s-2.1,4.2-4.2,5.3c-1.5,0.8-3.1,1.1-4.8,1.1l-0.2,2.6c0,0.3-0.1,0.5-0.3,0.6
			c-0.3,0.2-0.5,0.1-0.6-0.1c0-0.1,0-0.3,0-0.7l0.1-2.5c-3.1-0.6-5.4-2.3-6.8-5.1c-1.3-2.4-1.6-4.8-0.9-7.2c0.7-2.4,2.2-4.2,4.5-5.4
			c1.3-0.7,2.8-1.1,4.3-1l0.2-3.1c0-0.2,0.1-0.4,0.3-0.5c0.3-0.1,0.5-0.1,0.6,0.1c0.1,0.1,0.1,0.3,0.1,0.6l-0.2,2.9
			C548,670.1,550.4,671.9,552,674.9z M543.8,671.2c-1.4-0.7-2.7-0.8-4-0.1c-1.7,0.9-2.5,2.5-2.3,4.9c0.2,1.6,0.8,3.5,1.9,5.5
			c1,2,2.2,3.5,3.5,4.5L543.8,671.2z M548.6,676.7c-1.2-2.2-2.5-3.8-3.9-4.9l-0.9,14.9c1.5,0.8,3,0.8,4.5,0c1.4-0.7,2.1-2,2.2-3.7
			C550.5,681.2,549.9,679.2,548.6,676.7z"/>
	</g>
	<g class="st2">
		<path class="st3" d="M569,669.3c0.7,1.1,0.8,2.2,0.5,3.3c-0.3,1.2-1.1,2.3-2.3,3.3c-0.7,0.6-2.5,1.8-5.2,3.5
			c-1.2,0.8-1.9,1.2-2.1,1.3h-0.1l-0.5,0.3c-0.1,0.1-0.3,0.1-0.4-0.1c-0.1-0.1-0.1-0.2,0-0.3s0.3-0.3,0.8-0.5
			c0.5-0.3,0.7-0.5,0.7-0.6s-0.1-0.4-0.4-0.9l-7.7-12.4c-0.4-0.6-0.6-0.9-0.8-1c-0.1-0.1-0.5,0.1-1.2,0.5c-0.5,0.3-0.8,0.3-0.9,0.2
			c-0.1-0.2,0.1-0.4,0.6-0.7l0.6-0.4c0.3-0.2,0.9-0.6,2.1-1.2l1.6-1c1.6-1,2.6-1.5,3-1.8c0.6-0.3,1.1-0.5,1.7-0.6
			c2-0.4,3.5,0.1,4.4,1.6c1.3,2.1,0.5,4.3-2.5,6.7l0.1,0.1c1.7-1,3.2-1.5,4.7-1.3C567.1,667.4,568.2,668.1,569,669.3z M560.5,663.9
			c-0.9-1.5-1.9-2.2-2.8-2.2c-0.5,0-1.2,0.3-2.2,0.9c-0.4,0.2-0.7,0.4-0.8,0.6l-0.3,0.2l4,6.3c1.2-0.8,2-1.4,2.3-1.9
			C561.5,666.6,561.4,665.4,560.5,663.9z M565.9,670.9c-1.5-2.4-3.6-2.8-6.3-1.1l-0.7,0.4l4.3,6.9c0.2,0.3,0.3,0.4,0.5,0.4
			c0.1,0,0.5-0.2,1-0.5C567,675.5,567.5,673.4,565.9,670.9z"/>
	</g>
	<g class="st2">
		<path class="st3" d="M584.1,659.4c0,0,0.1,0.2,0.2,0.5c0.1,0.3,0.3,0.5,0.4,0.7l1.3,1.9c0.1,0.2,0.3,0.4,0.6,0.6l-5.6,3.8
			l-6.1,4.5c-0.5,0.3-0.8,0.4-0.9,0.2c-0.1-0.2-0.1-0.4,0.2-0.6c0.7-0.5,1.1-0.8,1.1-1c0.1-0.2-0.1-0.6-0.6-1.2l-8-11.3
			c-0.6-0.9-1-1.3-1.2-1.3s-0.6,0.3-1.2,0.7c-0.3,0.2-0.5,0.2-0.6,0c-0.1-0.2,0-0.4,0.2-0.6l0.8-0.6c0.2-0.2,0.4-0.3,0.7-0.5
			l0.4-0.3l0.8-0.6c0.1-0.1,0.7-0.5,1.6-1.2c1-0.7,2.2-1.6,3.6-2.6l1.9-1.4c0.6-0.4,1-0.7,1.4-1l0.2,0.2l0.4,0.5
			c0.3,0.3,1,1.2,2.3,2.7c0.1,0.1,0.2,0.2,0.3,0.4c0.2,0.3,0.2,0.5,0.1,0.6c-0.2,0.1-0.5,0-0.9-0.4c-1.5-1.5-2.8-2-3.8-1.7
			c-0.6,0.2-1.8,0.9-3.6,2.2l-1.7,1.2l4.3,6.2l0.8-0.6c1.4-1,2.2-1.7,2.3-2.2c0.2-0.5-0.1-1.2-0.7-2.4c-0.4-0.7-0.5-1.1-0.3-1.2
			c0.2-0.2,0.5,0,0.8,0.4c0.2,0.3,0.5,0.7,0.8,1.3s0.6,1,0.8,1.3c1,1.4,1.7,2.4,2.1,2.9c0.1,0.2,0.2,0.3,0.3,0.4
			c0.2,0.4,0.3,0.6,0,0.8c-0.2,0.1-0.5,0-1-0.6c-1-1.1-1.7-1.7-2.1-1.7c-0.5,0-1.4,0.5-2.8,1.5l-0.8,0.6l5,7.1
			c3.2-2.3,5-3.7,5.5-4.3c0.7-0.9,0.5-2.3-0.7-4.3c-0.2-0.3-0.2-0.6,0-0.8C583.4,658.6,583.7,658.8,584.1,659.4z"/>
	</g>
	<g class="st2">
		<path class="st3" d="M591.2,636.1c0.1,0.1-0.1,0.4-0.5,0.8c-0.1,0.1-0.2,0.2-0.4,0.4l-0.3,0.3c-0.2,0.2-0.3,0.3-0.2,0.4
			c0,0.1,0.3,0.4,0.6,0.9l9.4,11.6c0.6,0.8,1,1.2,1,1.4c0.1,0.1,0,0.3-0.1,0.4c-0.2,0.2-1.7-0.1-4.4-0.8c-0.3-0.1-0.8-0.2-1.5-0.4
			c-0.1,0-0.3-0.1-0.7-0.2c-2.2-0.5-6.2-1.6-12.1-3.3l8.1,10c0.6,0.8,1.1,1.1,1.3,1c0.3-0.1,0.7-0.4,1.3-0.9l0.1-0.1
			c0.3-0.2,0.4-0.2,0.5-0.1c0.1,0.2,0,0.4-0.5,0.8c-0.1,0.1-0.4,0.3-1.1,0.8c-0.3,0.2-0.6,0.5-0.9,0.7c-0.2,0.2-0.4,0.3-0.6,0.5
			c-0.4,0.4-0.8,0.7-1.2,1.1c-0.3,0.3-0.6,0.3-0.7,0.2c-0.1-0.1,0-0.4,0.4-0.7l0.3-0.2l0.4-0.4c0.5-0.5,0.7-0.8,0.6-0.9
			c0-0.1-0.3-0.4-0.7-0.9l-7.1-8.7c-1.3-1.6-2.1-2.5-2.6-2.6c-0.6-0.2-1.3,0-2,0.6c-0.5,0.4-0.9,0.5-1,0.4s0-0.3,0.2-0.5l0.1-0.1
			l1.7-1.4c0.1-0.1,0.2-0.2,0.4-0.3c0.2-0.2,0.4-0.3,0.6-0.5l1.2-0.9l15.7,4.2l-7.1-8.8c-0.4-0.5-0.7-0.8-0.8-0.9
			c-0.1,0-0.3,0-0.6,0.3c-0.3,0.2-0.5,0.4-0.7,0.5l-0.2,0.2c-0.4,0.3-0.7,0.4-0.8,0.2c-0.1-0.1,0-0.2,0.2-0.4
			c0.2-0.2,0.9-0.8,2.1-1.7c1.2-0.9,1.8-1.5,2-1.6C590.9,636,591.1,636,591.2,636.1z"/>
	</g>
	<g class="st2">
		<path class="st3" d="M618.1,635.6c0.1,0.1-0.1,0.5-0.7,1c0,0-0.1,0.1-0.3,0.3c-0.2,0.2-0.3,0.3-0.5,0.5l-2.2,2
			c-0.3,0.3-0.5,0.5-0.6,0.6l-0.5,0.4c-0.4,0.4-0.7,0.6-0.8,0.4c-0.1-0.1,0-0.3,0.3-0.6c0.6-0.6,0.9-1,0.8-1.2
			c-0.1-0.1-0.3-0.5-0.8-1l-5-5.4l-5.5,5.2l5.6,6c0.2,0.2,0.4,0.2,0.6,0.2c0.2-0.1,0.5-0.3,1.1-0.8c0.2-0.2,0.4-0.2,0.5-0.1
			c0.1,0.1,0,0.4-0.4,0.8l-0.5,0.4c-0.3,0.3-0.7,0.6-1.2,1.1l-2.9,2.7c-0.3,0.3-0.5,0.3-0.6,0.2s0.1-0.5,0.6-1
			c0.4-0.4,0.5-0.8,0.4-1l-10.2-11c-0.5-0.5-0.8-0.8-0.8-0.9c-0.2-0.1-0.4-0.1-0.7,0.3c-0.7,0.6-1.1,0.8-1.3,0.6
			c-0.1-0.1,0-0.3,0.2-0.6l0.2-0.2c0.4-0.4,0.8-0.8,1.2-1.1c0.4-0.3,0.6-0.6,0.8-0.8c0.2-0.2,0.6-0.6,1.2-1.1c0.6-0.5,0.9-0.9,1-0.9
			l0.2-0.2c0.3-0.3,0.6-0.4,0.7-0.2c0.2,0.2,0,0.5-0.6,1c-0.3,0.3-0.5,0.5-0.5,0.7c0,0.1,0.1,0.4,0.4,0.7l4.3,4.6l5.5-5.2l-3.7-4
			c-0.6-0.6-0.9-0.9-1-1c-0.3-0.2-0.5-0.1-0.8,0.2l-0.5,0.5c-0.3,0.2-0.5,0.2-0.6,0.1c-0.2-0.2,0-0.4,0.4-0.8l0.6-0.5
			c0.2-0.2,0.6-0.6,1.1-1.1s0.9-0.8,1.1-1.1c0.5-0.4,0.8-0.7,1-0.9l0.4-0.4c0.5-0.4,0.8-0.6,0.9-0.5c0.1,0.2,0.1,0.4-0.2,0.6
			c-0.3,0.2-0.5,0.5-0.6,0.6c-0.3,0.2-0.4,0.4-0.3,0.6c0.1,0.1,0.3,0.5,0.8,1l9.4,10.1c0.6,0.7,1,1,1.2,1s0.5-0.3,1.1-0.9
			C617.7,635.5,617.9,635.4,618.1,635.6z"/>
	</g>
	<g class="st2">
		<path class="st3" d="M632.4,620.4c0.1,0.1,0,0.4-0.4,0.7l-0.2,0.2l-1.7,1.8l-0.8,0.8c-0.3,0.3-0.7,0.8-1.3,1.4l-0.8,0.9l-0.5,0.5
			l-0.1,0.1c-0.3,0.4-0.6,0.5-0.7,0.3c-0.2-0.1,0.1-0.6,0.7-1.3c0.8-0.9,1.1-1.4,0.9-1.5c0,0-0.3-0.1-0.7-0.3
			c-0.2-0.1-1-0.5-2.6-1.1l-1.3-0.6l-3.9,4.2c1.3,2.7,2.1,4.1,2.4,4.4c0.2,0.2,0.4,0.1,0.6-0.1l0.4-0.4l0.4-0.4l0.3-0.2
			c0.2-0.2,0.4-0.3,0.5-0.2s0,0.4-0.4,0.8c-0.1,0.1-0.4,0.4-1,1s-1.2,1.2-1.6,1.6l-0.2,0.3l-0.2,0.3l-0.3,0.4l-0.1,0.1
			c-0.3,0.3-0.5,0.4-0.6,0.3s-0.1-0.3,0.1-0.6c0.3-0.4,0.5-0.6,0.6-0.8c0.2-0.4,0.4-0.7,0.3-0.9c0.1-0.2-0.6-1.7-2-4.5
			c-0.6-1.1-1.1-2.2-1.6-3.3c-0.2-0.4-0.3-0.6-0.4-0.8c-0.1-0.2-0.2-0.4-0.4-0.8c-0.5-1.1-1.3-2.7-2.3-4.8l-0.6-1.5l-0.3-0.7
			c-0.2-0.4-0.2-0.6-0.1-0.8c0.1-0.1,0.4,0.1,1.2,0.4c2,0.7,7.1,2.7,15.5,6c0.8,0.3,1.4,0.4,1.6,0.2c0.1,0,0.4-0.3,1-0.9
			C632,620.4,632.3,620.2,632.4,620.4z M622.3,622.1l-6.7-2.8c0.7,1.6,1.8,3.8,3.2,6.6L622.3,622.1z"/>
	</g>
	<g class="st2">
		<path class="st3" d="M630.6,594.3c0.2,0.2,0.1,0.4-0.2,0.7c-0.5,0.6-0.7,1.1-0.8,1.4s0.1,0.7,0.3,1.2l0.4,0.6
			c2,3.6,4.7,8.3,8.2,14.1c0.4,0.6,0.5,1,0.4,1.1s-0.5,0.1-1.1-0.1c-3-1-7.2-2.5-12.6-4.2c-0.7-0.2-1.8-0.6-3.2-1.1
			c-0.8-0.3-1.4-0.4-1.7-0.3c-0.3,0.1-0.7,0.6-1.4,1.4c-0.2,0.2-0.3,0.3-0.5,0.2c-0.2-0.2-0.2-0.4,0.1-0.7c0.4-0.4,0.7-0.8,1-1.2
			s0.9-1.1,1.7-2.1c0.2-0.2,0.4-0.5,0.8-1c0.4-0.4,0.6-0.8,0.8-1l0.7-0.9c0.4-0.5,0.7-0.7,0.9-0.6c0.1,0.1,0.1,0.4-0.1,0.7l-0.4,0.5
			l-0.6,0.7c-0.5,0.7-0.7,1.1-0.5,1.2c0.1,0.1,2,0.7,5.8,2c0.1,0,2.4,0.8,6.8,2.3c-0.3-0.5-1-1.8-2.3-4.1l-2.4-4.1
			c-1-1.9-1.7-2.9-1.9-3.1s-0.5-0.1-0.8,0.2l-0.6,0.7l-0.4,0.5c-0.1,0.2-0.3,0.2-0.4,0.1c-0.2-0.2-0.1-0.6,0.4-1.2l0.5-0.6
			c0.2-0.2,0.4-0.5,0.7-0.9c0.4-0.3,0.6-0.5,0.7-0.6c0.1-0.1,0.2-0.3,0.4-0.7c0.3-0.3,0.5-0.6,0.7-0.8l0.1-0.1
			C630.3,594.2,630.5,594.2,630.6,594.3z"/>
	</g>
	<g class="st2">
		<path class="st3" d="M641.2,579.9c0.2,0.1,0.1,0.4-0.3,0.9c0,0.1-0.2,0.2-0.3,0.5l-0.3,0.4c-0.1,0.2-0.2,0.3-0.1,0.4
			c0.1,0.1,0.3,0.3,0.8,0.7l12,8.6c0.8,0.6,1.2,0.9,1.3,1s0.1,0.3,0,0.4c-0.2,0.2-1.6,0.4-4.4,0.4c-0.3,0-0.8,0-1.5,0
			c-0.1,0-0.3,0-0.7,0c-2.2,0.1-6.3,0.1-12.3,0.1l10.3,7.4c0.8,0.6,1.3,0.8,1.5,0.6c0.2-0.2,0.5-0.6,1-1.2l0.1-0.1
			c0.2-0.3,0.4-0.3,0.5-0.2c0.2,0.1,0.1,0.4-0.3,0.9c-0.1,0.1-0.3,0.4-0.8,1c-0.3,0.3-0.5,0.6-0.7,0.9c-0.2,0.2-0.3,0.4-0.4,0.7
			c-0.3,0.4-0.5,0.9-0.9,1.4c-0.2,0.3-0.5,0.5-0.6,0.3c-0.1-0.1-0.1-0.4,0.2-0.8l0.2-0.3l0.3-0.4c0.3-0.6,0.4-0.9,0.3-1
			c-0.1-0.1-0.4-0.3-0.9-0.7l-9-6.5c-1.6-1.2-2.7-1.8-3.2-1.8c-0.6-0.1-1.2,0.3-1.8,1.1c-0.4,0.5-0.7,0.7-0.9,0.6
			c-0.1-0.1-0.1-0.3,0.1-0.6l0.1-0.1l1.3-1.8c0.1-0.1,0.2-0.2,0.3-0.4c0.2-0.2,0.3-0.4,0.4-0.6l0.9-1.2l16.1-0.1l-9-6.5
			c-0.5-0.4-0.9-0.6-1-0.6s-0.3,0.1-0.5,0.4s-0.4,0.5-0.5,0.7l-0.1,0.2c-0.3,0.4-0.5,0.6-0.7,0.4c-0.1-0.1-0.1-0.2,0-0.4
			c0.1-0.2,0.6-1,1.5-2.2c0.9-1.2,1.4-1.9,1.5-2.1C641,579.8,641.1,579.8,641.2,579.9z"/>
	</g>
	<g class="st2">
		<path class="st3" d="M663.5,567.6c1.3,0.8,2.1,2,2.3,3.6c0.3,1.7-0.1,3.3-1,4.8c-0.7,1.2-1.8,2.2-3.2,3c-0.1,0.1-0.2,0.2-0.2,0.2
			c-0.1,0.1,0,0.3,0.2,0.4c0.2,0.2,0.4,0.3,0.5,0.4s0.2,0.3,0,0.5c-0.1,0.2-0.3,0.3-0.6,0.1c0,0-0.4-0.3-1-0.7s-1.2-0.8-1.6-1.1
			c-0.2-0.1-0.5-0.3-0.9-0.5c-0.4-0.2-0.7-0.4-0.9-0.5c-0.4-0.3-0.6-0.5-0.5-0.7c0.1-0.2,0.6-0.2,1.4,0.1c2.8,1.1,4.9,0.5,6.2-1.8
			c1.2-1.9,0.8-3.5-1.2-4.6c-0.9-0.5-1.7-0.7-2.5-0.5c-0.8,0.1-1.9,0.7-3.4,1.6c-1.9,1.2-3.3,2-4.1,2.1c-1,0.2-2.1,0-3-0.5
			c-1.3-0.8-2-1.8-2.3-3.2s0-2.8,0.9-4.2c0.5-0.9,1.3-1.7,2.5-2.3c0.1-0.1,0.2-0.1,0.3-0.2c0.1-0.2,0-0.4-0.3-0.6
			c-0.3-0.2-0.4-0.5-0.3-0.7c0.1-0.2,0.3-0.3,0.6-0.1c0,0,0.1,0.1,0.3,0.2c0.3,0.3,0.8,0.6,1.4,0.9c0.3,0.2,1,0.5,1.9,1
			c0.1,0,0.2,0.1,0.3,0.2c0.3,0.2,0.4,0.3,0.3,0.5c-0.1,0.2-0.4,0.2-0.9,0.1c-1.1-0.4-2.2-0.4-3.2-0.2c-1,0.2-1.7,0.8-2.2,1.7
			c-1,1.7-0.6,3,1.2,4.1c0.8,0.5,1.6,0.6,2.3,0.5c0.4-0.1,0.8-0.2,1.1-0.4c0.3-0.2,1.2-0.8,2.6-1.7c1.6-1.1,3-1.7,4-1.9
			C661.6,566.9,662.6,567.1,663.5,567.6z"/>
	</g>
</g>
<g id="Jakkesæt">
	<g>
		<polygon class="st3" points="419.5,423.9 401.9,423.1 368.3,211.2 410.1,224.7 452,211.2 		"/>
	</g>
	<g>
		<path class="st4" d="M367,209.8l-5,11.4c-0.5,1.2-1.5,2.2-2.8,2.7l-75.3,30.9c-1.8,0.7-3,2.4-3.2,4.3
			c-2.8,31.7-26.4,296.3-25.8,329.2c0,1.9,1.5,3.4,3.3,3.4l0,0h30.4c0.9,0,1.6-0.6,1.7-1.5l29.6-172.9c0.1-0.7,0.9-1.2,1.6-1.1
			c0.5,0.1,0.9,0.5,1.1,1l8.2,32.7c0.4,1.4,0.4,2.8,0,4.2l-34.1,136c-0.2,0.9,0.2,1.7,1.1,2.1l97.2,39.7c0.8,0.4,1.8,0.1,2.2-0.8
			c0.1-0.2,0.1-0.3,0.1-0.5l13.2-69.6c0.1-0.5,0.6-0.8,1-0.7c0.3,0.1,0.6,0.3,0.7,0.7l15.1,69.7c0.1,0.9,1,1.5,1.9,1.4
			c0.2,0,0.3-0.1,0.5-0.2l95.2-39.7c0.8-0.3,1.2-1.2,1-2l-31.8-137.8c-0.4-1.6-0.4-3.2,0-4.8l6.2-29.6c0.1-0.7,0.9-1.2,1.6-1.1
			c0.5,0.1,1,0.5,1.1,1.1l29.3,172.1c0.1,0.8,0.8,1.4,1.7,1.5h29.1c2.3,0,4.1-1.8,4.1-4.1l0,0c0-0.1,0-0.2,0-0.2
			c-2.2-35.6-17.3-280.5-23-323.8c-0.5-3.9-3.1-7.3-6.7-8.8l-75.1-31.9c-1.1-0.5-2.1-1.3-2.6-2.4l-5-10c-0.2-0.9-1.1-1.5-2-1.3
			c-0.8,0.2-1.4,0.9-1.4,1.8l-38.3,209.2c-0.2,1-1.1,1.6-2.1,1.4c-0.7-0.1-1.3-0.7-1.4-1.4l-39.2-209.9c0.1-0.9-0.7-1.7-1.6-1.8
			C367.9,208.3,367.1,208.9,367,209.8z"/>
	</g>
	<g>
		<path class="st0" d="M423.1,222.1h-23.3c-1,0-1.8,0.8-1.8,1.8l0,0c0,0.3,0.1,0.6,0.2,0.8l8.4,16.9c0.4,0.7,0.3,1.5-0.3,2l-17,18.9
			c-0.4,0.4-0.5,1-0.4,1.5l22,121.8c0,0.3,0.2,0.5,0.5,0.5s0.5-0.2,0.5-0.5l22-123.8c0.1-0.5,0-1.1-0.4-1.5l-15.1-17
			c-0.4-0.5-0.6-1.2-0.3-1.8l6.8-17.2c0.3-1-0.3-2-1.2-2.2C423.4,222.2,423.3,222.1,423.1,222.1z"/>
	</g>
	<g>
		<path class="st0" d="M471.4,332.6l27.3-3.6c0.6-0.1,1-0.5,1-1.1V315c0-0.3-0.1-0.6-0.3-0.8c-1.6-1.5-8.1-7.9-9.9-7.9
			s-14.7,18.4-19.1,24.6c-0.3,0.5-0.2,1.2,0.3,1.6C470.8,332.6,471.1,332.6,471.4,332.6L471.4,332.6z"/>
	</g>
</g>
</svg>
